{"glyphs":{"0":{"ha":536,"x_min":39,"x_max":497,"o":"m 264 1017 q 437 886 378 1017 q 497 500 497 754 q 436 114 497 243 q 271 -14 376 -14 q 104 113 169 -14 q 39 484 39 239 q 102 887 39 756 q 264 1017 165 1017 m 347 700 q 269 947 347 947 q 206 871 222 947 q 191 680 191 795 l 191 281 q 269 53 191 53 q 329 113 310 53 q 347 350 347 173 l 347 700 z "},"1":{"ha":535,"x_min":106,"x_max":429,"o":"m 210 880 l 119 880 q 106 892 106 880 l 106 929 q 117 947 106 941 l 254 1008 q 288 1017 275 1017 l 338 1017 q 352 1003 352 1017 l 352 150 q 364 90 352 108 q 410 70 376 73 q 429 52 429 68 l 429 14 q 415 0 429 0 l 144 0 q 127 14 127 0 l 127 49 q 152 72 127 67 q 196 94 182 77 q 210 151 210 110 l 210 880 z "},"2":{"ha":535,"x_min":24,"x_max":495,"o":"m 495 0 l 50 0 q 24 24 24 0 q 60 166 24 104 l 205 422 q 303 620 267 532 q 338 793 338 708 q 311 904 338 861 q 239 947 284 947 q 181 928 205 947 q 157 895 157 908 q 170 880 157 890 q 209 811 209 852 q 188 756 209 780 q 131 733 166 733 q 67 760 90 733 q 45 829 45 787 q 104 962 45 907 q 258 1017 163 1017 q 427 954 364 1017 q 490 779 490 890 q 443 594 490 684 q 267 338 396 505 q 132 123 157 196 l 361 123 q 403 134 390 123 q 423 174 416 145 q 448 201 430 201 l 478 201 q 495 186 495 201 l 495 0 z "},"3":{"ha":535,"x_min":22,"x_max":490,"o":"m 303 549 q 490 275 490 471 q 410 65 490 144 q 218 -14 330 -14 q 77 31 133 -14 q 22 144 22 76 q 44 207 22 182 q 103 231 66 231 q 156 210 135 231 q 176 155 176 189 q 153 96 176 119 q 146 84 146 89 q 165 63 146 74 q 212 53 184 53 q 338 282 338 53 q 321 415 338 364 q 279 484 303 465 q 212 511 256 503 q 186 528 186 515 l 186 570 q 210 589 186 587 q 325 788 325 595 q 229 949 325 949 q 185 940 203 949 q 166 919 166 931 q 176 897 166 911 q 190 855 190 878 q 170 807 190 827 q 121 786 149 786 q 68 809 88 786 q 49 867 49 833 q 107 972 49 927 q 243 1017 165 1017 q 404 952 340 1017 q 467 793 467 888 q 303 549 467 641 z "},"4":{"ha":535,"x_min":24,"x_max":512,"o":"m 285 231 l 46 231 q 24 252 24 231 l 24 275 q 38 335 24 302 l 322 1000 q 342 1012 327 1012 l 416 1012 q 427 1004 427 1012 l 427 307 l 498 307 q 512 297 512 307 l 512 241 q 503 231 512 231 l 427 231 l 427 113 q 465 64 427 75 q 479 49 479 60 l 479 12 q 467 0 479 0 l 241 0 q 231 9 231 0 l 231 51 q 243 66 231 61 q 285 127 285 79 l 285 231 m 285 727 l 104 307 l 285 307 l 285 727 z "},"5":{"ha":535,"x_min":28,"x_max":492,"o":"m 96 996 l 333 996 q 387 1027 374 996 q 408 1041 393 1041 l 435 1041 q 443 1034 443 1041 l 443 873 l 164 873 l 149 596 q 249 619 204 619 q 381 581 328 619 q 463 475 434 542 q 492 314 492 408 q 422 65 492 149 q 235 -19 353 -19 q 84 28 140 -19 q 28 148 28 76 q 53 218 28 188 q 115 249 78 249 q 167 227 146 249 q 188 172 188 205 q 149 108 188 130 q 136 94 136 100 q 162 64 136 82 q 224 47 189 47 q 314 104 289 47 q 340 287 340 161 q 203 527 340 527 q 100 492 151 527 l 71 517 l 96 996 z "},"6":{"ha":535,"x_min":41,"x_max":503,"o":"m 193 549 q 330 625 255 625 q 455 552 408 625 q 503 334 503 480 q 442 77 503 168 q 277 -14 381 -14 q 41 442 41 -14 q 123 866 41 720 q 333 1013 205 1013 q 442 977 396 1013 q 488 892 488 941 q 466 834 488 859 q 410 809 445 809 q 355 832 374 809 q 335 888 335 854 q 342 920 335 903 q 345 934 345 929 q 331 944 345 944 q 230 848 262 944 q 193 549 197 753 m 193 458 l 193 342 q 212 109 193 168 q 271 50 230 50 q 331 109 315 50 q 347 363 347 168 q 331 484 347 450 q 282 517 315 517 q 193 458 233 517 z "},"7":{"ha":535,"x_min":45,"x_max":490,"o":"m 402 881 l 174 881 q 113 820 124 881 q 108 800 111 805 q 94 795 106 795 l 58 795 q 45 808 45 795 l 53 995 q 73 1013 54 1013 q 106 1007 81 1013 q 157 1001 136 1001 l 474 1001 q 490 988 490 1001 l 490 912 q 326 272 326 549 q 330 187 326 240 q 333 114 333 136 q 245 -14 333 -14 q 182 20 203 -14 q 162 102 162 55 q 237 463 162 224 q 402 881 311 703 z "},"8":{"ha":535,"x_min":31,"x_max":505,"o":"m 183 502 q 83 643 111 581 q 56 774 56 705 q 113 948 56 878 q 261 1017 169 1017 q 408 954 351 1017 q 466 810 466 891 q 333 572 466 696 q 505 256 505 433 q 441 62 505 138 q 268 -14 377 -14 q 97 58 163 -14 q 31 229 31 130 q 183 502 31 370 m 294 611 q 372 800 372 711 q 339 907 372 864 q 262 950 307 950 q 191 918 218 950 q 163 834 163 885 q 294 611 163 721 m 225 465 q 137 231 137 347 q 175 103 137 152 q 272 54 213 54 q 357 95 324 54 q 390 195 390 135 q 225 465 390 325 z "},"9":{"ha":535,"x_min":33,"x_max":494,"o":"m 342 446 q 210 368 285 368 q 83 447 133 368 q 33 662 33 525 q 96 920 33 822 q 260 1017 160 1017 q 428 909 363 1017 q 494 544 494 800 q 416 127 494 269 q 207 -14 338 -14 q 96 21 140 -14 q 52 108 52 56 q 75 165 52 140 q 131 189 97 189 q 200 115 200 189 q 192 79 200 96 q 187 66 187 70 q 211 53 187 53 q 306 135 270 53 q 342 362 342 216 l 342 446 m 342 526 l 342 635 q 322 886 342 823 q 261 949 302 949 q 203 898 221 949 q 184 724 184 847 l 184 614 q 260 482 184 482 q 342 526 303 482 z "}," ":{"ha":241,"x_min":0,"x_max":0,"o":""},"!":{"ha":260,"x_min":48,"x_max":224,"o":"m 172 280 q 158 264 171 264 l 117 264 q 103 280 103 264 q 64 821 100 526 q 52 947 52 916 q 138 1062 52 1062 q 224 951 224 1062 q 210 797 224 909 q 175 405 179 555 l 172 280 m 222 73 q 197 12 222 37 q 135 -14 171 -14 q 74 12 99 -14 q 48 73 48 37 q 74 135 48 109 q 135 160 99 160 q 197 135 172 160 q 222 73 222 109 z "},"\"":{"ha":534,"x_min":83,"x_max":451,"o":"m 135 621 l 98 822 q 83 934 83 904 q 149 1017 83 1017 q 199 997 179 1017 q 218 943 218 976 q 201 821 218 916 l 164 621 l 135 621 m 367 621 l 330 819 q 314 934 314 905 q 383 1017 314 1017 q 432 997 414 1017 q 451 944 451 977 q 438 819 451 886 l 399 621 l 367 621 z "},"#":{"ha":621,"x_min":28,"x_max":597,"o":"m 251 735 l 430 735 l 467 1031 l 540 1031 l 503 735 l 594 735 l 594 663 l 493 663 l 455 368 l 597 368 l 597 296 l 446 296 l 408 0 l 336 0 l 374 296 l 195 296 l 157 0 l 84 0 l 123 296 l 31 296 l 31 368 l 132 368 l 170 663 l 28 663 l 28 735 l 179 735 l 218 1031 l 290 1031 l 251 735 m 242 663 l 205 368 l 383 368 l 420 663 l 242 663 z "},"$":{"ha":535,"x_min":28,"x_max":508,"o":"m 227 1055 l 300 1055 l 300 1017 q 427 978 368 1017 q 487 868 487 938 q 467 802 487 827 q 413 777 448 777 q 367 794 387 777 q 348 839 348 810 q 368 890 348 863 q 379 911 379 903 q 354 939 379 925 q 300 953 329 952 l 300 611 q 508 279 508 469 q 456 96 508 178 q 300 -11 404 13 l 300 -180 l 227 -180 l 227 -11 q 82 52 136 -4 q 28 175 28 108 q 51 242 28 215 q 113 270 74 270 q 168 247 147 270 q 188 192 188 224 q 161 134 188 159 q 147 112 147 121 q 227 61 147 72 l 227 488 q 50 767 50 617 q 96 922 50 854 q 227 1010 143 990 l 227 1055 m 227 945 q 149 821 149 913 q 227 671 149 741 l 227 945 m 300 427 l 300 68 q 370 122 342 79 q 398 226 398 165 q 300 427 398 346 z "},"%":{"ha":840,"x_min":31,"x_max":809,"o":"m 197 524 q 71 598 112 524 q 31 797 31 672 q 71 996 31 924 q 193 1069 111 1069 q 313 996 273 1069 q 353 795 353 923 q 309 591 353 657 q 197 524 264 524 m 235 873 q 225 996 235 968 q 191 1025 216 1025 q 157 995 168 1025 q 146 882 146 965 l 146 737 q 155 610 146 653 q 194 567 163 567 q 225 599 216 567 q 235 737 235 631 l 235 873 m 604 1066 l 680 1066 l 237 -24 l 159 -24 l 604 1066 m 652 -7 q 526 67 567 -7 q 486 267 486 142 q 528 469 486 401 q 648 538 571 538 q 769 465 728 538 q 809 264 809 392 q 764 60 809 126 q 652 -7 719 -7 m 690 342 q 681 463 690 431 q 647 494 672 494 q 612 465 623 494 q 602 351 602 435 l 602 207 q 611 80 602 123 q 649 37 619 37 q 682 74 674 37 q 690 207 690 111 l 690 342 z "},"&":{"ha":680,"x_min":41,"x_max":667,"o":"m 199 566 q 156 814 156 724 q 206 982 156 916 q 342 1049 256 1049 q 470 995 419 1049 q 521 864 521 941 q 478 736 521 794 q 341 600 436 677 q 462 279 395 420 q 504 446 504 371 q 488 487 504 472 q 454 503 473 501 q 439 518 439 505 l 439 556 q 452 570 439 570 l 652 570 q 667 553 667 570 l 667 518 q 644 494 667 503 q 605 467 615 484 q 582 395 595 449 q 508 191 551 274 q 635 90 566 90 q 663 92 646 90 l 663 39 q 561 -14 614 -14 q 420 73 490 -14 q 245 -10 330 -10 q 98 62 155 -10 q 41 244 41 134 q 72 389 41 323 q 199 566 103 456 m 320 685 q 406 882 406 780 q 345 979 406 979 q 287 886 287 979 q 320 685 287 812 m 226 476 q 170 335 170 406 q 211 181 170 256 q 307 106 251 106 q 373 142 342 106 q 226 476 306 237 z "},"'":{"ha":234,"x_min":49,"x_max":185,"o":"m 101 621 l 64 821 q 49 929 49 905 q 115 1017 49 1017 q 165 997 144 1017 q 185 944 185 977 q 168 821 185 918 l 131 621 l 101 621 z "},"(":{"ha":395,"x_min":41,"x_max":384,"o":"m 349 -217 q 41 428 41 32 q 85 703 41 574 q 194 915 129 832 q 349 1074 260 998 l 384 1038 q 229 783 269 935 q 189 429 189 631 q 232 62 189 211 q 382 -184 275 -87 l 349 -217 z "},")":{"ha":393,"x_min":9,"x_max":352,"o":"m 44 1074 q 352 429 352 825 q 44 -217 352 32 l 9 -182 q 164 74 125 -77 q 204 428 204 226 q 181 714 204 595 q 117 906 158 833 q 10 1041 76 978 l 44 1074 z "},"*":{"ha":570,"x_min":35,"x_max":536,"o":"m 248 810 q 51 881 140 861 q 35 890 35 884 q 37 897 35 893 l 85 980 q 96 985 89 985 q 114 975 104 985 q 268 843 184 897 q 230 1047 260 960 q 228 1058 228 1054 q 238 1065 228 1065 l 330 1065 q 343 1057 343 1065 q 339 1040 343 1053 q 305 843 311 947 q 453 966 387 897 q 475 985 471 985 q 482 980 479 985 l 532 892 q 534 886 534 888 q 500 872 534 880 q 322 810 409 851 q 515 741 414 762 q 536 730 536 736 q 532 721 536 728 l 482 635 q 476 631 480 631 q 465 638 472 631 q 305 775 387 721 q 340 580 309 680 q 345 561 345 563 q 335 553 345 553 l 235 553 q 224 562 224 553 q 229 585 224 566 q 268 779 260 689 q 120 659 170 715 q 93 635 99 635 q 85 640 88 635 l 37 728 q 35 734 35 731 q 49 742 35 739 q 248 810 138 758 z "},"+":{"ha":621,"x_min":51,"x_max":570,"o":"m 51 540 l 273 540 l 273 762 l 349 762 l 349 540 l 570 540 l 570 464 l 349 464 l 349 242 l 273 242 l 273 464 l 51 464 l 51 540 z "},",":{"ha":240,"x_min":9,"x_max":210,"o":"m 106 -15 q 31 73 31 3 q 56 136 31 111 q 119 161 82 161 q 185 131 161 161 q 210 64 210 102 q 44 -197 210 -65 l 9 -144 q 106 -15 90 -67 z "},"-":{"ha":323,"x_min":31,"x_max":292,"o":"m 31 379 l 292 379 l 292 254 l 31 254 l 31 379 z "},".":{"ha":235,"x_min":31,"x_max":205,"o":"m 205 73 q 179 12 205 37 q 117 -14 153 -14 q 56 12 81 -14 q 31 73 31 37 q 56 135 31 109 q 117 160 81 160 q 179 135 154 160 q 205 73 205 109 z "},"/":{"ha":410,"x_min":11,"x_max":410,"o":"m 330 1069 l 410 1069 l 88 -14 l 11 -14 l 330 1069 z "},":":{"ha":260,"x_min":55,"x_max":229,"o":"m 229 563 q 203 502 229 528 q 142 476 178 476 q 81 502 106 476 q 55 563 55 528 q 80 625 55 600 q 142 650 106 650 q 203 625 178 650 q 229 563 229 599 m 229 73 q 203 12 229 37 q 142 -14 178 -14 q 80 12 106 -14 q 55 73 55 37 q 80 135 55 109 q 142 160 106 160 q 204 135 178 160 q 229 73 229 109 z "},";":{"ha":264,"x_min":33,"x_max":234,"o":"m 231 563 q 206 502 231 528 q 144 476 180 476 q 83 502 109 476 q 57 563 57 527 q 83 625 57 599 q 144 650 109 650 q 206 625 180 650 q 231 563 231 600 m 131 -15 q 55 73 55 3 q 81 136 55 111 q 143 161 106 161 q 210 131 185 161 q 234 64 234 102 q 68 -197 234 -65 l 33 -144 q 131 -15 115 -67 z "},"<":{"ha":621,"x_min":51,"x_max":570,"o":"m 51 538 l 570 756 l 570 674 l 161 505 l 570 337 l 570 254 l 51 473 l 51 538 z "},"=":{"ha":621,"x_min":51,"x_max":570,"o":"m 51 646 l 570 646 l 570 570 l 51 570 l 51 646 m 51 433 l 570 433 l 570 357 l 51 357 l 51 433 z "},">":{"ha":621,"x_min":51,"x_max":570,"o":"m 570 473 l 51 254 l 51 337 l 460 505 l 51 674 l 51 756 l 570 538 l 570 473 z "},"?":{"ha":448,"x_min":30,"x_max":418,"o":"m 239 313 l 239 279 q 226 266 239 266 l 181 266 q 169 280 169 266 l 169 359 q 227 687 169 496 q 267 888 267 822 q 204 986 267 986 q 171 978 186 986 q 157 961 157 970 q 167 943 157 954 q 189 891 189 919 q 166 838 189 861 q 111 815 144 815 q 53 840 75 815 q 30 901 30 864 q 81 1016 30 967 q 216 1064 132 1064 q 366 1004 313 1064 q 418 848 418 943 q 335 606 418 750 q 239 313 239 439 m 290 73 q 264 12 290 37 q 203 -14 239 -14 q 141 12 166 -14 q 115 73 115 37 q 141 135 115 109 q 203 160 167 160 q 264 135 239 160 q 290 73 290 109 z "},"@":{"ha":836,"x_min":41,"x_max":795,"o":"m 469 353 q 341 273 420 273 q 227 428 227 273 q 298 659 227 564 q 520 754 369 754 q 589 748 576 754 q 602 720 602 741 q 601 684 602 709 l 583 428 q 581 391 581 399 q 606 353 581 353 q 674 459 656 353 q 692 656 692 565 q 645 870 692 804 q 499 937 599 937 q 309 881 383 937 q 194 688 234 825 q 154 377 154 551 q 370 65 154 65 q 577 140 468 65 q 601 151 593 151 q 629 130 615 151 q 642 98 642 109 q 618 67 642 81 q 521 19 595 52 q 353 -14 448 -14 q 41 404 41 -14 q 153 853 41 688 q 501 1017 265 1017 q 795 661 795 1017 q 730 372 795 472 q 566 271 666 271 q 469 353 479 271 m 471 669 q 461 671 465 671 q 390 605 414 671 q 365 446 365 540 q 402 368 365 368 q 436 388 420 368 q 458 488 452 408 l 471 669 z "},"A":{"ha":606,"x_min":12,"x_max":594,"o":"m 222 921 l 215 967 q 212 992 212 989 q 222 1004 212 999 l 336 1057 q 342 1059 339 1059 q 355 1046 352 1059 l 539 127 q 551 91 544 102 q 578 68 558 80 q 594 46 594 58 l 594 16 q 581 0 594 0 l 355 0 q 336 16 336 0 l 336 46 q 358 73 336 62 q 385 111 385 87 q 383 127 385 118 l 355 269 l 178 269 l 149 132 q 147 119 147 123 q 178 75 147 99 q 197 46 197 58 l 197 16 q 178 0 197 0 l 36 0 q 12 16 12 0 l 12 52 q 27 75 12 66 q 64 132 55 92 l 222 921 m 268 703 l 197 355 l 336 355 l 268 703 z "},"B":{"ha":574,"x_min":22,"x_max":543,"o":"m 337 539 q 543 279 543 474 q 502 127 543 194 q 389 31 462 61 q 242 0 315 0 l 34 0 q 22 13 22 0 l 22 46 q 39 73 22 60 q 66 126 66 92 l 66 929 q 39 982 66 965 q 22 1009 22 993 l 22 1040 q 39 1055 22 1055 l 255 1055 q 449 983 376 1055 q 523 798 523 911 q 481 648 523 718 q 337 539 439 578 m 222 971 l 222 578 q 367 774 367 578 q 347 895 367 848 q 299 957 328 942 q 222 971 271 971 m 222 500 l 222 80 q 313 100 279 82 q 364 163 347 119 q 382 283 382 208 q 345 445 382 391 q 222 500 308 499 z "},"C":{"ha":544,"x_min":41,"x_max":525,"o":"m 525 258 q 463 59 518 132 q 319 -14 408 -14 q 117 123 193 -14 q 41 525 41 260 q 115 927 41 786 q 306 1069 189 1069 q 412 1036 354 1069 q 425 1032 420 1032 q 438 1040 429 1032 q 450 1048 443 1047 l 488 1048 q 501 1028 501 1048 l 501 806 q 488 787 501 787 l 458 787 q 439 794 444 787 q 425 835 434 802 q 316 991 384 991 q 254 951 276 991 q 221 797 233 910 q 210 568 210 684 q 238 195 210 314 q 338 77 267 77 q 450 266 423 77 l 525 258 z "},"D":{"ha":610,"x_min":24,"x_max":570,"o":"m 24 1009 l 24 1044 q 39 1055 24 1055 l 216 1055 q 467 933 365 1055 q 570 538 570 811 q 539 268 570 397 q 440 70 508 140 q 210 0 372 0 l 36 0 q 24 12 24 0 l 24 46 q 41 73 24 61 q 66 126 66 92 l 66 929 q 43 979 66 964 q 24 1009 24 994 m 222 974 l 222 79 q 328 111 290 79 q 382 254 365 144 q 399 506 399 363 q 386 750 399 660 q 354 886 373 840 q 306 951 334 932 q 222 974 277 970 z "},"E":{"ha":517,"x_min":23,"x_max":504,"o":"m 504 0 l 39 0 q 23 16 23 0 l 23 46 q 45 77 23 60 q 65 126 65 93 l 65 929 q 40 982 65 964 q 23 1009 23 994 l 23 1042 q 39 1055 23 1055 l 388 1055 q 424 1057 397 1055 q 454 1059 448 1059 q 476 1046 476 1059 l 476 847 q 473 828 476 831 q 456 825 470 825 l 431 825 q 412 844 414 825 q 386 935 405 897 q 308 972 366 972 l 222 972 l 222 589 l 254 589 q 294 600 283 589 q 321 670 304 611 q 328 691 326 689 q 340 693 330 693 l 370 693 q 388 676 388 693 l 388 420 q 372 404 388 404 l 340 404 q 326 409 330 404 q 315 441 322 414 q 289 499 303 489 q 250 510 275 510 l 222 510 l 222 81 l 314 81 q 385 105 365 81 q 433 237 404 129 q 458 261 440 261 l 487 261 q 504 244 504 261 l 504 0 z "},"F":{"ha":496,"x_min":20,"x_max":480,"o":"m 222 972 l 222 574 l 267 574 q 304 586 294 574 q 326 634 315 598 q 337 664 334 661 q 353 668 340 668 l 382 668 q 400 652 400 668 l 400 418 q 386 401 400 401 l 353 401 q 337 405 341 401 q 328 429 334 410 q 300 485 315 475 q 267 494 285 494 l 222 494 l 222 126 q 248 73 222 91 q 266 46 266 62 l 266 16 q 248 0 266 0 l 37 0 q 22 14 22 0 l 22 46 q 39 73 22 61 q 65 126 65 92 l 65 929 q 38 982 65 964 q 20 1009 20 994 l 20 1040 q 35 1055 20 1055 l 386 1055 q 435 1057 401 1055 q 457 1059 454 1059 q 477 1055 473 1059 q 480 1038 480 1051 l 480 836 q 460 818 480 818 l 434 818 q 418 823 422 818 q 410 857 414 828 q 372 949 399 925 q 294 972 345 972 l 222 972 z "},"G":{"ha":584,"x_min":41,"x_max":553,"o":"m 343 439 l 514 439 q 535 436 531 439 q 540 420 540 432 q 538 396 540 414 q 534 323 534 352 l 534 133 q 545 104 534 114 q 553 86 553 98 l 553 62 q 536 36 553 47 q 466 5 519 24 q 348 -14 413 -14 q 41 487 41 -14 q 71 761 41 630 q 173 980 100 891 q 329 1069 246 1069 q 419 1046 370 1069 q 441 1039 433 1039 q 457 1044 446 1039 q 472 1048 466 1048 l 498 1048 q 517 1030 517 1048 l 517 806 q 500 787 517 787 l 472 787 q 456 790 458 787 q 445 833 454 793 q 326 991 411 991 q 259 954 286 991 q 221 781 233 916 q 210 511 210 646 q 221 279 210 370 q 247 141 232 188 q 282 78 262 95 q 331 61 303 61 q 391 146 391 61 l 391 293 q 381 348 391 331 q 341 377 372 364 q 326 395 326 383 l 326 424 q 343 439 326 439 z "},"H":{"ha":602,"x_min":22,"x_max":580,"o":"m 536 929 l 536 126 q 562 73 536 91 q 580 46 580 62 l 580 16 q 562 0 580 0 l 351 0 q 336 14 336 0 l 336 46 q 353 73 336 61 q 379 126 379 92 l 379 515 l 222 515 l 222 126 q 248 73 222 91 q 266 46 266 62 l 266 16 q 248 0 266 0 l 37 0 q 22 14 22 0 l 22 46 q 39 73 22 61 q 65 126 65 92 l 65 929 q 39 981 65 964 q 22 1009 22 993 l 22 1039 q 39 1055 22 1055 l 251 1055 q 266 1040 266 1055 l 266 1009 q 248 981 266 994 q 222 929 222 963 l 222 610 l 379 610 l 379 929 q 353 981 379 964 q 335 1009 335 993 l 335 1039 q 353 1055 335 1055 l 564 1055 q 579 1040 579 1055 l 579 1009 q 562 981 579 994 q 536 929 536 963 z "},"I":{"ha":288,"x_min":22,"x_max":266,"o":"m 222 126 q 248 73 222 91 q 266 46 266 62 l 266 16 q 248 0 266 0 l 37 0 q 22 14 22 0 l 22 46 q 39 73 22 61 q 65 126 65 92 l 65 929 q 39 981 65 964 q 22 1009 22 993 l 22 1039 q 39 1055 22 1055 l 251 1055 q 266 1040 266 1055 l 266 1009 q 248 981 266 994 q 222 929 222 963 l 222 126 z "},"J":{"ha":441,"x_min":8,"x_max":425,"o":"m 225 186 l 225 929 q 199 981 225 964 q 182 1009 182 993 l 182 1039 q 199 1055 182 1055 l 411 1055 q 425 1040 425 1055 l 425 1009 q 408 981 425 994 q 382 929 382 963 l 382 268 q 318 65 382 140 q 161 -10 255 -10 q 50 26 91 -10 q 8 113 8 63 q 31 168 8 145 q 89 191 53 191 q 137 174 118 191 q 155 132 155 158 q 151 103 155 121 q 149 87 149 94 q 178 61 149 61 q 225 186 225 61 z "},"K":{"ha":601,"x_min":22,"x_max":594,"o":"m 222 640 l 362 929 q 370 960 370 945 q 353 983 370 970 q 336 1009 336 995 l 336 1036 q 353 1055 336 1055 l 553 1055 q 574 1036 574 1055 l 574 1009 q 569 991 574 996 q 545 977 564 986 q 441 876 475 943 l 336 662 l 505 167 q 571 77 524 111 q 594 42 594 60 l 594 20 q 573 0 594 0 l 348 0 q 326 20 326 0 l 326 41 q 340 71 326 59 q 366 104 366 90 q 362 125 366 114 l 222 530 l 222 126 q 248 73 222 92 q 266 46 266 61 l 266 16 q 248 0 266 0 l 37 0 q 22 14 22 0 l 22 46 q 39 73 22 62 q 65 126 65 91 l 65 929 q 39 981 65 964 q 22 1009 22 994 l 22 1039 q 39 1055 22 1055 l 251 1055 q 266 1040 266 1055 l 266 1009 q 248 981 266 994 q 222 929 222 964 l 222 640 z "},"L":{"ha":484,"x_min":16,"x_max":471,"o":"m 65 126 l 65 929 q 39 981 65 964 q 22 1009 22 993 l 22 1039 q 39 1055 22 1055 l 251 1055 q 266 1040 266 1055 l 266 1009 q 248 981 266 994 q 222 929 222 963 l 222 81 l 280 81 q 359 112 331 81 q 401 220 387 144 q 409 253 406 249 q 420 258 411 258 l 452 258 q 471 243 471 258 l 471 0 l 39 0 q 16 20 16 0 l 16 46 q 36 73 16 62 q 65 126 65 91 z "},"M":{"ha":722,"x_min":22,"x_max":700,"o":"m 65 126 l 65 929 q 39 981 65 964 q 22 1009 22 993 l 22 1039 q 39 1055 22 1055 l 284 1055 l 361 560 l 437 1055 l 685 1055 q 700 1040 700 1055 l 700 1009 q 682 981 700 994 q 656 929 656 963 l 656 126 q 683 73 656 91 q 700 46 700 62 l 700 16 q 682 0 700 0 l 478 0 q 464 14 464 0 l 464 46 q 481 73 464 61 q 507 126 507 92 l 507 948 l 361 0 l 307 0 l 162 948 l 162 126 q 188 73 162 91 q 205 46 205 62 l 205 16 q 188 0 205 0 l 37 0 q 22 14 22 0 l 22 46 q 39 73 22 61 q 65 126 65 92 z "},"N":{"ha":587,"x_min":22,"x_max":565,"o":"m 422 485 l 422 929 q 397 981 422 964 q 379 1009 379 993 l 379 1039 q 397 1055 379 1055 l 550 1055 q 565 1040 565 1055 l 565 1009 q 548 981 565 994 q 522 929 522 963 l 522 17 q 502 -5 522 -5 l 472 -5 q 444 17 452 -5 l 163 756 l 163 126 q 189 73 163 91 q 207 46 207 62 l 207 16 q 189 0 207 0 l 37 0 q 22 14 22 0 l 22 46 q 39 73 22 61 q 65 126 65 92 l 65 929 q 39 981 65 964 q 22 1009 22 993 l 22 1039 q 39 1055 22 1055 l 183 1055 q 204 1051 199 1055 q 215 1033 210 1047 l 422 485 z "},"O":{"ha":629,"x_min":41,"x_max":587,"o":"m 321 -14 q 110 128 180 -14 q 41 522 41 271 q 111 921 41 774 q 315 1069 181 1069 q 514 933 440 1069 q 587 530 587 797 q 514 122 587 258 q 321 -14 441 -14 m 314 59 q 370 98 345 59 q 406 314 395 138 q 417 637 417 490 q 401 856 417 770 q 366 967 385 942 q 317 991 347 991 q 272 972 292 991 q 240 904 252 954 q 221 712 229 855 q 212 415 212 569 q 237 141 212 223 q 314 59 262 59 z "},"P":{"ha":562,"x_min":22,"x_max":535,"o":"m 222 485 l 222 126 q 248 73 222 91 q 266 46 266 62 l 266 16 q 248 0 266 0 l 37 0 q 22 14 22 0 l 22 46 q 39 73 22 61 q 65 126 65 92 l 65 929 q 39 981 65 964 q 22 1009 22 993 l 22 1039 q 39 1055 22 1055 l 222 1055 q 453 977 372 1055 q 535 770 535 899 q 222 485 535 485 m 222 974 l 222 565 q 312 579 283 565 q 357 634 340 593 q 374 764 374 676 q 358 893 374 850 q 311 954 342 937 q 222 974 280 972 z "},"Q":{"ha":629,"x_min":41,"x_max":587,"o":"m 250 -7 q 41 522 41 72 q 111 925 41 781 q 313 1069 181 1069 q 516 926 446 1069 q 587 530 587 783 q 568 292 587 393 q 516 125 549 190 q 445 30 484 60 q 352 -14 406 -1 q 471 -73 412 -34 q 541 -99 511 -99 q 559 -98 547 -99 q 568 -97 566 -97 q 576 -104 576 -97 l 576 -134 q 544 -170 576 -153 q 475 -186 512 -186 q 344 -109 410 -186 q 250 -7 276 -29 m 314 59 q 370 98 345 59 q 406 314 395 138 q 417 637 417 490 q 401 856 417 770 q 366 967 385 942 q 317 991 347 991 q 272 972 292 991 q 240 904 252 954 q 221 712 229 855 q 212 415 212 569 q 237 141 212 223 q 314 59 262 59 z "},"R":{"ha":578,"x_min":22,"x_max":569,"o":"m 222 494 l 222 126 q 248 73 222 91 q 266 46 266 62 l 266 16 q 248 0 266 0 l 37 0 q 22 14 22 0 l 22 46 q 39 73 22 61 q 65 126 65 92 l 65 929 q 39 981 65 964 q 22 1009 22 993 l 22 1039 q 39 1055 22 1055 l 217 1055 q 446 987 368 1055 q 525 791 525 919 q 336 527 525 587 q 420 466 391 500 q 465 365 449 431 l 514 150 q 533 94 524 109 q 563 66 542 79 q 569 54 569 62 l 569 15 q 554 0 569 0 l 418 0 q 393 22 399 0 l 301 395 q 268 475 286 456 q 222 494 250 493 m 222 972 l 222 574 q 330 621 296 574 q 365 785 365 667 q 330 936 365 900 q 222 972 295 972 z "},"S":{"ha":496,"x_min":33,"x_max":471,"o":"m 91 0 l 57 0 q 40 18 40 0 l 40 274 q 58 300 40 300 l 87 300 q 103 292 99 300 q 113 238 106 284 q 240 60 141 60 q 321 105 292 60 q 351 214 351 150 q 319 336 351 279 q 197 488 288 392 q 98 601 127 561 q 51 692 68 642 q 33 804 33 743 q 89 989 33 917 q 227 1062 146 1062 q 307 1041 264 1062 q 333 1031 326 1031 q 348 1037 340 1031 q 368 1042 356 1042 l 393 1042 q 413 1023 413 1042 l 413 799 q 398 782 413 782 l 367 782 q 351 788 355 782 q 338 838 347 795 q 234 985 306 985 q 172 952 195 985 q 149 877 149 920 q 176 775 149 827 q 286 640 203 724 q 431 450 391 532 q 471 273 471 368 q 404 63 471 144 q 243 -18 336 -18 q 146 4 202 -18 q 121 12 129 12 q 104 5 115 12 q 91 0 96 0 z "},"T":{"ha":534,"x_min":16,"x_max":518,"o":"m 345 976 l 345 126 q 371 73 345 91 q 389 46 389 62 l 389 16 q 371 0 389 0 l 159 0 q 144 14 144 0 l 144 46 q 162 73 144 61 q 188 126 188 92 l 188 976 l 158 976 q 109 951 125 976 q 80 840 93 926 q 66 829 79 829 l 39 829 q 16 848 16 829 l 16 1046 q 38 1069 16 1069 q 86 1063 52 1069 q 170 1055 142 1055 l 410 1055 q 455 1062 429 1057 q 500 1068 496 1068 q 518 1051 518 1068 l 518 848 q 500 829 518 829 l 475 829 q 456 838 459 829 q 446 882 453 846 q 421 958 434 940 q 376 976 408 976 l 345 976 z "},"U":{"ha":581,"x_min":22,"x_max":559,"o":"m 515 244 q 454 54 515 123 q 292 -14 392 -14 q 129 54 193 -14 q 65 231 65 121 l 65 929 q 39 981 65 964 q 22 1009 22 994 l 22 1039 q 39 1055 22 1055 l 251 1055 q 266 1040 266 1055 l 266 1009 q 248 981 266 994 q 222 929 222 964 l 222 224 q 316 83 222 83 q 418 248 418 83 l 418 929 q 393 981 418 964 q 375 1009 375 994 l 375 1039 q 393 1055 375 1055 l 544 1055 q 559 1040 559 1055 l 559 1009 q 541 981 559 994 q 515 929 515 964 l 515 244 z "},"V":{"ha":576,"x_min":16,"x_max":559,"o":"m 317 439 l 411 911 q 414 930 414 922 q 383 975 414 959 q 360 1004 360 988 l 360 1038 q 379 1055 360 1055 l 539 1055 q 559 1038 559 1055 l 559 1004 q 541 977 559 987 q 499 916 508 960 l 322 7 q 302 -14 318 -14 l 275 -14 q 255 7 259 -14 l 77 911 q 34 981 66 960 q 16 1008 16 992 l 16 1039 q 34 1055 16 1055 l 243 1055 q 260 1038 260 1055 l 260 1004 q 243 981 260 991 q 220 943 220 966 q 222 922 220 934 l 317 439 z "},"W":{"ha":829,"x_min":16,"x_max":813,"o":"m 589 444 l 671 910 q 673 932 673 921 q 642 978 673 964 q 618 1006 618 989 l 618 1036 q 639 1055 618 1055 l 790 1055 q 813 1033 813 1055 l 813 1006 q 795 982 813 994 q 757 920 764 961 l 593 7 q 574 -14 589 -14 l 544 -14 q 528 7 532 -14 l 416 613 l 307 7 q 288 -14 302 -14 l 259 -14 q 241 7 245 -14 l 68 940 q 33 983 62 972 q 16 1005 16 988 l 16 1037 q 36 1055 16 1055 l 234 1055 q 247 1044 247 1055 l 247 1002 q 234 986 247 991 q 210 948 210 975 q 212 928 210 940 l 302 444 l 374 846 l 356 940 q 320 981 351 969 q 307 998 307 986 l 307 1041 q 319 1055 307 1055 l 529 1055 q 544 1041 544 1055 l 544 1017 q 541 994 544 1000 q 523 979 538 987 q 498 943 498 966 q 499 928 498 936 l 589 444 z "},"X":{"ha":606,"x_min":16,"x_max":589,"o":"m 232 516 l 78 939 q 46 979 68 965 q 31 1002 31 989 l 31 1036 q 49 1055 31 1055 l 245 1055 q 266 1034 266 1055 l 266 1002 q 247 978 266 989 q 231 957 231 968 q 232 951 231 954 l 313 719 l 399 931 q 404 951 404 942 q 385 975 404 964 q 363 1007 363 987 l 363 1037 q 384 1055 363 1055 l 542 1055 q 563 1036 563 1055 l 563 1004 q 543 981 563 987 q 490 931 505 969 l 357 598 l 526 130 q 570 75 538 94 q 589 47 589 63 l 589 14 q 576 0 589 0 l 355 0 q 336 18 336 0 l 336 43 q 354 75 336 61 q 375 106 375 91 q 368 139 375 121 l 276 396 l 172 139 q 166 113 166 125 q 195 77 166 91 q 218 49 218 66 l 218 18 q 199 0 218 0 l 36 0 q 16 17 16 0 l 16 46 q 31 71 16 62 q 78 130 62 91 l 232 516 z "},"Y":{"ha":570,"x_min":8,"x_max":562,"o":"m 357 470 l 357 126 q 384 73 357 91 q 401 46 401 62 l 401 16 q 383 0 401 0 l 172 0 q 157 14 157 0 l 157 46 q 174 73 157 61 q 200 126 200 92 l 200 470 l 64 929 q 24 983 52 970 q 8 1006 8 989 l 8 1040 q 21 1055 8 1055 l 240 1055 q 259 1037 259 1055 l 259 1004 q 240 985 259 992 q 210 954 210 975 q 213 939 210 947 l 312 610 l 401 911 q 406 944 406 928 q 375 983 406 970 q 357 1003 357 991 l 357 1039 q 373 1055 357 1055 l 543 1055 q 562 1040 562 1055 l 562 1004 q 543 981 562 989 q 492 924 504 962 l 357 470 z "},"Z":{"ha":486,"x_min":12,"x_max":469,"o":"m 47 1055 l 446 1055 q 469 1036 469 1055 q 454 962 469 1008 l 182 80 l 263 80 q 389 219 368 80 q 398 257 393 251 q 413 263 402 263 l 446 263 q 460 248 460 263 l 460 0 l 31 0 q 12 20 12 0 l 12 50 l 299 975 l 214 975 q 145 951 165 975 q 115 861 125 928 q 107 827 111 830 q 92 824 104 824 l 61 824 q 47 838 47 824 l 47 1055 z "},"[":{"ha":338,"x_min":77,"x_max":321,"o":"m 77 1055 l 310 1055 q 321 1044 321 1055 l 321 1013 q 310 1004 321 1004 l 264 1004 q 223 995 235 1004 q 211 960 211 986 l 211 -84 q 224 -128 211 -115 q 272 -141 237 -141 l 308 -141 q 321 -153 321 -141 l 321 -184 q 309 -195 321 -195 l 77 -195 l 77 1055 z "},"\\":{"ha":410,"x_min":0,"x_max":399,"o":"m 80 1069 l 399 -14 l 322 -14 l 0 1069 l 80 1069 z "},"]":{"ha":324,"x_min":16,"x_max":261,"o":"m 261 -195 l 28 -195 q 16 -185 16 -195 l 16 -154 q 28 -145 16 -145 l 73 -145 q 115 -136 102 -145 q 127 -100 127 -127 l 127 943 q 114 987 127 975 q 66 1000 100 1000 l 31 1000 q 16 1011 16 1000 l 16 1043 q 30 1055 16 1055 l 261 1055 l 261 -195 z "},"^":{"ha":477,"x_min":4,"x_max":473,"o":"m 267 1055 l 473 707 l 397 707 l 239 972 l 81 707 l 4 707 l 213 1055 l 267 1055 z "},"_":{"ha":347,"x_min":-8,"x_max":355,"o":"m -8 -104 l 355 -104 l 355 -174 l -8 -174 l -8 -104 z "},"`":{"ha":463,"x_min":73,"x_max":325,"o":"m 73 966 l 226 966 l 325 756 l 256 756 l 73 966 z "},"a":{"ha":439,"x_min":20,"x_max":437,"o":"m 255 408 l 255 503 q 190 587 255 587 q 167 572 167 587 q 171 556 167 567 q 179 522 179 536 q 162 478 179 496 q 115 460 145 460 q 63 480 83 460 q 43 533 43 500 q 91 620 43 587 q 202 654 139 654 q 340 606 291 654 q 389 471 389 558 l 389 133 q 395 91 389 105 q 420 72 401 76 q 437 54 437 68 l 437 25 q 381 -11 437 -11 q 278 61 307 -11 q 153 -14 213 -14 q 58 34 95 -14 q 20 156 20 81 q 255 408 20 347 m 255 338 q 159 183 159 303 q 209 89 159 89 q 243 110 231 89 q 255 157 255 132 l 255 338 z "},"b":{"ha":473,"x_min":18,"x_max":443,"o":"m 49 -11 l 49 947 q 28 998 49 980 q 18 1012 18 1006 l 18 1042 q 32 1053 18 1053 l 183 1055 l 183 607 q 283 650 235 650 q 443 342 443 650 q 395 80 443 175 q 258 -14 347 -14 q 166 13 219 -14 q 128 27 139 27 q 67 -11 107 27 l 49 -11 m 183 545 l 183 73 q 223 63 206 63 q 282 113 267 63 q 297 361 297 163 q 281 520 297 481 q 227 560 264 560 q 183 545 201 560 z "},"c":{"ha":423,"x_min":31,"x_max":408,"o":"m 408 199 q 240 -14 395 -14 q 90 66 149 -14 q 31 313 31 147 q 93 571 31 488 q 251 654 156 654 q 359 615 315 654 q 403 520 403 577 q 382 463 403 484 q 332 441 362 441 q 287 459 304 441 q 270 503 270 477 q 287 551 270 526 q 294 567 294 562 q 258 589 294 589 q 180 433 180 589 l 180 276 q 262 78 180 78 q 334 207 325 78 l 408 199 z "},"d":{"ha":477,"x_min":31,"x_max":450,"o":"m 291 613 l 291 943 q 262 994 291 980 q 250 1012 250 1000 l 250 1037 q 265 1049 250 1049 l 425 1055 l 425 104 q 442 60 425 73 q 450 37 450 53 l 450 8 q 438 -4 450 -4 l 291 -4 l 291 60 q 178 -9 236 -9 q 31 284 31 -9 q 190 654 31 654 q 291 613 237 654 m 291 546 q 239 568 262 568 q 185 502 195 568 q 175 355 175 436 l 175 234 q 232 77 175 77 q 291 119 264 77 l 291 546 z "},"e":{"ha":437,"x_min":31,"x_max":409,"o":"m 404 165 q 241 -14 388 -14 q 87 68 144 -14 q 31 313 31 150 q 84 563 31 472 q 229 654 138 654 q 359 583 310 654 q 409 397 409 513 l 409 340 q 392 323 409 323 l 180 323 l 180 268 q 198 127 180 176 q 260 79 216 79 q 331 178 311 79 l 404 165 m 279 398 l 279 492 q 229 589 279 589 q 180 465 180 589 l 180 398 l 279 398 z "},"f":{"ha":267,"x_min":11,"x_max":348,"o":"m 192 568 l 192 108 q 220 58 192 72 q 233 38 233 52 l 233 13 q 218 0 233 0 l 31 0 q 16 13 16 0 l 16 38 q 28 58 16 51 q 58 108 58 73 l 58 568 l 22 568 q 11 577 11 568 l 11 610 q 26 629 11 621 q 51 656 45 639 q 60 730 57 673 q 127 980 67 891 q 266 1069 186 1069 q 324 1047 300 1069 q 348 994 348 1026 q 331 948 348 968 q 283 928 314 928 q 233 965 247 928 q 219 982 227 982 q 192 857 192 982 l 192 640 l 243 640 q 259 625 259 640 l 259 580 q 244 568 259 568 l 192 568 z "},"g":{"ha":459,"x_min":20,"x_max":449,"o":"m 306 627 q 390 674 353 674 q 431 660 414 674 q 449 624 449 646 q 409 584 449 584 q 380 593 396 584 q 361 600 367 600 q 340 593 351 600 q 390 439 390 524 q 344 271 390 334 q 215 209 298 209 q 161 214 193 209 l 127 128 l 189 128 q 422 -33 422 128 q 360 -162 422 -115 q 197 -210 298 -210 q 72 -182 117 -210 q 26 -106 26 -154 q 43 -61 26 -79 q 90 -43 61 -43 q 134 -59 116 -43 q 152 -98 152 -75 q 142 -131 152 -113 q 210 -146 175 -146 q 285 -123 254 -146 q 317 -66 317 -100 q 155 7 317 7 q 77 5 123 7 q 41 3 53 3 q 20 16 20 3 q 30 52 20 26 l 105 240 q 29 430 29 306 q 74 590 29 527 q 210 654 118 654 q 306 627 264 654 m 209 269 q 248 301 237 269 q 259 424 259 333 q 248 561 259 528 q 212 593 237 593 q 169 545 178 593 q 160 397 160 496 q 171 299 160 328 q 209 269 182 269 z "},"h":{"ha":474,"x_min":14,"x_max":452,"o":"m 190 521 l 190 98 q 205 58 190 75 q 213 46 213 50 l 213 9 q 203 0 213 0 l 35 0 q 24 10 24 0 l 24 46 q 33 58 24 51 q 56 106 56 75 l 56 935 q 26 986 56 972 q 14 1004 14 992 l 14 1037 q 29 1049 14 1049 l 190 1055 l 190 592 q 315 648 254 648 q 426 515 426 648 l 426 98 q 444 54 426 77 q 452 39 452 43 l 452 11 q 442 0 452 0 l 277 0 q 266 11 266 0 l 266 46 q 273 57 266 52 q 292 91 292 71 l 292 509 q 252 558 292 558 q 190 521 219 558 z "},"i":{"ha":241,"x_min":14,"x_max":231,"o":"m 119 998 q 178 975 155 998 q 202 917 202 951 q 178 860 202 884 q 121 836 155 836 q 64 860 87 836 q 40 917 40 884 q 65 975 40 952 q 119 998 90 998 m 190 640 l 190 108 q 219 58 190 73 q 231 38 231 51 l 231 13 q 216 0 231 0 l 29 0 q 14 13 14 0 l 14 38 q 27 58 14 52 q 56 108 56 72 l 56 528 q 26 579 56 564 q 14 597 14 586 l 14 622 q 29 635 14 634 l 190 640 z "},"j":{"ha":237,"x_min":-100,"x_max":195,"o":"m 113 998 q 172 974 149 998 q 195 917 195 950 q 172 860 195 884 q 115 836 148 836 q 57 860 81 836 q 33 917 33 884 q 58 975 33 952 q 113 998 83 998 m 54 -38 l 54 528 q 24 579 54 565 q 12 597 12 585 l 12 622 q 27 635 12 634 l 188 640 l 188 64 q 132 -139 188 -61 q -13 -217 76 -217 q -77 -199 -54 -217 q -100 -151 -100 -181 q -82 -110 -100 -126 q -37 -94 -63 -94 q 2 -108 -13 -94 q 18 -142 18 -123 q 15 -162 18 -149 q 54 -38 54 -149 z "},"k":{"ha":488,"x_min":12,"x_max":480,"o":"m 187 104 q 216 58 187 72 q 229 38 229 52 l 229 13 q 214 0 229 0 l 26 0 q 12 13 12 0 l 12 38 q 24 58 12 51 q 53 106 53 73 l 53 943 q 24 994 53 980 q 12 1012 12 1000 l 12 1037 q 26 1049 12 1049 l 187 1055 l 187 328 l 289 494 q 308 548 308 526 q 281 578 308 569 q 265 595 265 583 l 265 627 q 279 640 265 640 l 449 640 q 467 624 467 640 l 467 593 q 445 574 467 581 q 374 525 399 562 l 321 445 l 435 113 q 471 56 450 70 q 480 42 480 50 l 480 16 q 465 0 480 0 l 289 0 q 273 16 273 0 l 273 39 q 290 64 273 53 q 307 88 307 75 q 302 113 307 100 l 239 317 l 187 239 l 187 104 z "},"l":{"ha":239,"x_min":12,"x_max":229,"o":"m 187 1055 l 187 108 q 216 58 187 73 q 229 38 229 51 l 229 13 q 214 0 229 0 l 26 0 q 12 13 12 0 l 12 38 q 24 58 12 52 q 53 108 53 72 l 53 943 q 24 994 53 979 q 12 1012 12 1000 l 12 1037 q 26 1049 12 1049 l 187 1055 z "},"m":{"ha":710,"x_min":23,"x_max":689,"o":"m 191 523 l 191 110 q 210 61 191 83 q 219 45 219 51 l 219 16 q 203 0 219 0 l 44 0 q 29 13 29 0 l 29 45 q 40 64 29 55 q 56 101 56 79 l 56 527 q 35 577 56 558 q 23 595 23 587 l 23 625 q 44 640 23 640 l 191 643 l 191 590 q 318 648 254 648 q 414 581 381 648 q 549 648 490 648 q 632 609 604 648 q 661 506 661 570 l 661 101 q 680 60 661 77 q 689 45 689 51 l 689 16 q 674 0 689 0 l 515 0 q 501 14 501 0 l 501 45 q 510 63 501 54 q 527 110 527 79 l 527 500 q 486 556 527 556 q 427 523 464 556 l 427 110 q 448 58 427 77 q 456 45 456 50 l 456 18 q 439 0 456 0 l 281 0 q 267 14 267 0 l 267 45 q 275 63 267 54 q 292 110 292 79 l 292 492 q 250 556 292 556 q 191 523 226 556 z "},"n":{"ha":474,"x_min":14,"x_max":452,"o":"m 56 106 l 56 528 q 26 579 56 565 q 14 597 14 585 l 14 622 q 29 635 14 634 l 190 640 l 190 584 q 316 646 248 646 q 396 606 367 646 q 425 504 425 567 l 425 98 q 443 54 425 77 q 452 39 452 43 l 452 11 q 441 0 452 0 l 276 0 q 264 11 264 0 l 264 46 q 272 57 264 52 q 290 91 290 71 l 290 504 q 255 553 290 553 q 190 513 221 553 l 190 98 q 205 58 190 75 q 213 46 213 50 l 213 9 q 203 0 213 0 l 35 0 q 24 10 24 0 l 24 46 q 33 58 24 51 q 56 106 56 75 z "},"o":{"ha":477,"x_min":31,"x_max":446,"o":"m 232 654 q 446 317 446 654 q 393 72 446 158 q 241 -14 340 -14 q 85 70 140 -14 q 31 321 31 155 q 87 574 31 494 q 232 654 144 654 m 298 385 q 283 544 298 500 q 237 587 269 587 q 178 422 178 587 l 178 269 q 192 100 178 147 q 240 53 205 53 q 284 89 270 53 q 298 223 298 125 l 298 385 z "},"p":{"ha":479,"x_min":12,"x_max":449,"o":"m 53 -107 l 53 529 q 24 581 53 566 q 12 598 12 587 l 12 623 q 26 635 12 635 l 183 641 l 183 576 q 298 646 237 646 q 410 561 371 646 q 449 336 449 475 q 431 150 449 236 q 383 25 413 64 q 302 -14 353 -14 q 187 39 238 -14 l 187 -115 q 206 -161 187 -146 q 216 -176 216 -168 l 216 -213 q 209 -222 216 -222 l 28 -222 q 17 -213 17 -222 l 17 -176 q 27 -162 17 -169 q 53 -107 53 -146 m 187 532 l 187 106 q 242 73 218 73 q 290 125 276 73 q 304 332 304 177 q 289 516 304 472 q 241 559 273 559 q 187 532 216 559 z "},"q":{"ha":477,"x_min":31,"x_max":460,"o":"m 293 37 q 191 -9 241 -9 q 76 68 121 -9 q 31 306 31 145 q 81 565 31 476 q 223 654 131 654 q 303 631 260 654 q 346 617 331 617 q 409 654 375 617 l 427 654 l 427 -117 q 448 -160 427 -142 q 460 -177 460 -170 l 460 -210 q 451 -222 460 -222 l 271 -222 q 259 -210 259 -222 l 259 -177 q 269 -165 259 -171 q 293 -115 293 -151 l 293 37 m 293 553 q 248 580 267 580 q 191 520 205 580 q 176 363 176 461 q 190 138 176 193 q 243 83 204 83 q 293 102 268 83 l 293 553 z "},"r":{"ha":368,"x_min":24,"x_max":359,"o":"m 164 503 q 290 648 209 648 q 341 626 322 648 q 359 573 359 604 q 342 521 359 543 q 296 500 324 500 q 239 530 264 500 q 190 344 190 452 l 190 113 q 216 58 190 83 q 227 44 227 49 l 227 10 q 218 0 227 0 l 33 0 q 24 7 24 0 l 24 49 q 34 59 24 55 q 56 98 56 69 l 56 516 q 33 575 56 552 q 24 590 24 585 l 24 623 q 43 637 24 637 l 164 640 l 164 503 z "},"s":{"ha":404,"x_min":16,"x_max":388,"o":"m 215 654 q 325 621 281 654 q 368 536 368 587 q 348 486 368 507 q 296 465 328 465 q 250 480 270 465 q 230 524 230 496 q 236 550 230 536 q 240 564 240 559 q 204 588 240 588 q 158 569 178 588 q 138 517 138 551 q 157 464 138 489 q 253 382 175 438 q 358 282 328 328 q 388 178 388 236 q 329 36 388 87 q 189 -14 270 -14 q 63 23 111 -14 q 16 117 16 60 q 35 171 16 148 q 90 193 54 193 q 155 132 155 193 q 151 105 155 121 q 146 84 146 90 q 194 51 146 51 q 254 74 230 51 q 277 125 277 96 q 257 184 277 157 q 176 257 236 211 q 61 365 94 319 q 28 473 28 410 q 85 604 28 553 q 215 654 142 654 z "},"t":{"ha":284,"x_min":9,"x_max":284,"o":"m 49 566 l 25 566 q 9 580 9 566 l 9 614 q 24 640 9 628 q 50 672 44 654 q 55 730 55 690 l 55 842 q 77 861 55 858 l 159 869 q 174 871 170 871 q 183 854 183 871 l 183 640 l 252 640 q 272 624 272 640 l 272 583 q 256 566 272 566 l 183 566 l 183 154 q 224 87 183 87 q 245 90 234 87 q 256 92 252 92 q 272 82 269 92 l 282 50 q 284 43 284 45 q 239 7 284 28 q 155 -14 195 -14 q 49 118 49 -14 l 49 566 z "},"u":{"ha":470,"x_min":20,"x_max":448,"o":"m 285 125 l 285 545 q 267 576 285 560 q 256 591 256 586 l 256 625 q 269 637 256 637 l 419 640 l 419 92 q 437 60 419 76 q 448 45 448 50 l 448 12 q 435 -1 448 0 l 285 -3 l 285 50 q 159 -9 212 -9 q 78 25 107 -9 q 50 115 50 60 l 50 545 q 31 576 50 560 q 20 591 20 586 l 20 625 q 34 637 20 637 l 184 640 l 184 133 q 221 84 184 84 q 285 125 254 84 z "},"v":{"ha":434,"x_min":8,"x_max":426,"o":"m 375 532 l 241 9 q 226 -5 237 -5 l 194 -5 q 178 9 182 -5 l 52 532 q 20 584 42 572 q 8 604 8 590 l 8 625 q 22 640 8 640 l 191 640 q 207 626 207 640 l 207 600 q 192 579 207 587 q 170 549 170 566 q 172 532 170 541 l 241 250 l 307 520 q 309 538 309 529 q 275 585 309 568 q 262 596 262 591 l 262 627 q 276 640 262 640 l 413 640 q 426 627 426 640 l 426 596 q 412 581 426 586 q 375 532 385 570 z "},"w":{"ha":654,"x_min":8,"x_max":646,"o":"m 470 264 l 524 496 q 529 531 529 515 q 500 577 529 559 q 482 599 482 589 l 482 624 q 498 640 482 640 l 629 640 q 646 625 646 640 l 646 599 q 635 583 646 587 q 593 512 607 570 l 470 -5 l 418 -5 l 324 379 l 235 -5 l 180 -5 l 58 521 q 22 581 48 564 q 8 602 8 589 l 8 629 q 21 640 8 640 l 191 640 q 208 625 208 640 l 208 599 q 193 578 208 588 q 173 547 173 564 q 176 529 173 539 l 235 272 l 317 640 l 378 640 l 470 264 z "},"x":{"ha":440,"x_min":8,"x_max":431,"o":"m 165 298 l 54 539 q 20 583 41 568 q 8 604 8 591 l 8 627 q 22 640 8 640 l 187 640 q 206 625 206 640 l 206 595 q 193 581 206 588 q 178 559 178 570 q 183 539 178 551 l 230 435 l 273 532 q 279 553 279 543 q 256 579 279 566 q 240 595 240 589 l 240 625 q 256 640 240 640 l 390 640 q 406 626 406 640 l 406 595 q 388 577 406 583 q 347 539 359 567 l 263 363 l 387 96 q 417 58 395 79 q 431 35 431 45 l 431 14 q 417 0 431 0 l 245 0 q 230 15 230 0 l 230 43 q 243 58 230 52 q 263 80 263 66 q 259 96 263 87 l 199 224 l 150 121 q 141 88 141 103 q 168 59 141 73 q 187 39 187 48 l 187 16 q 172 0 187 0 l 24 0 q 8 15 8 0 l 8 39 q 26 57 8 52 q 70 96 56 66 l 165 298 z "},"y":{"ha":438,"x_min":2,"x_max":430,"o":"m 181 4 l 56 522 q 19 579 47 558 q 8 594 8 588 l 8 627 q 22 640 8 640 l 201 640 q 213 629 213 640 l 213 594 q 201 581 213 585 q 176 545 176 572 q 181 509 176 530 l 242 251 l 303 502 q 307 528 307 518 q 277 575 307 552 q 261 594 261 588 l 261 628 q 272 640 261 640 l 418 640 q 430 628 430 640 l 430 594 q 417 578 430 586 q 372 509 384 559 l 261 47 q 213 -116 232 -75 q 160 -182 194 -157 q 83 -207 125 -207 q 24 -189 46 -207 q 2 -140 2 -170 q 22 -95 2 -110 q 66 -80 41 -80 q 140 -113 93 -80 q 181 4 168 -67 z "},"z":{"ha":390,"x_min":13,"x_max":374,"o":"m 83 462 l 47 462 q 37 471 37 462 l 37 624 q 53 640 37 640 l 352 640 q 374 621 374 640 l 374 578 l 146 60 l 189 60 q 294 101 274 60 q 317 172 313 141 q 329 183 319 183 l 359 183 q 374 170 374 183 l 374 0 l 30 0 q 13 16 13 0 l 13 74 l 239 578 l 189 578 q 100 490 112 578 q 83 462 96 462 z "},"{":{"ha":410,"x_min":25,"x_max":401,"o":"m 401 1055 l 401 1023 q 269 894 269 998 q 285 786 269 861 q 302 673 302 705 q 81 446 302 506 q 255 345 208 408 q 303 221 303 282 q 290 132 303 190 q 270 -3 270 38 q 401 -135 270 -109 l 401 -167 q 265 -145 323 -167 q 164 -67 207 -123 q 121 50 121 -12 q 142 176 121 81 q 157 284 157 248 q 122 378 157 343 q 25 424 87 414 l 25 465 q 125 517 92 475 q 158 610 158 559 q 140 727 158 650 q 122 833 122 806 q 197 986 122 923 q 401 1055 273 1050 z "},"|":{"ha":349,"x_min":136,"x_max":212,"o":"m 136 1069 l 212 1069 l 212 -210 l 136 -210 l 136 1069 z "},"}":{"ha":410,"x_min":9,"x_max":385,"o":"m 9 1055 q 216 983 144 1051 q 288 833 288 915 q 270 727 288 806 q 252 610 252 650 q 285 517 252 559 q 385 465 318 475 l 385 424 q 285 375 318 414 q 252 283 252 335 q 268 176 252 247 q 289 50 289 81 q 246 -67 289 -12 q 145 -145 203 -123 q 9 -167 87 -167 l 9 -135 q 140 -3 140 -109 q 119 132 140 38 q 106 221 106 190 q 134 316 106 268 q 206 392 162 364 q 330 446 250 420 q 109 673 109 506 q 125 786 109 705 q 141 894 141 861 q 9 1023 141 998 l 9 1055 z "},"~":{"ha":621,"x_min":50,"x_max":572,"o":"m 531 584 l 572 584 q 535 467 572 509 q 442 425 498 425 q 386 433 416 425 q 264 481 357 442 q 168 509 196 509 q 90 425 102 509 l 50 425 q 90 547 52 509 q 176 584 128 584 q 357 528 224 584 q 455 499 425 499 q 531 584 523 499 z "},"Ä":{"ha":606,"x_min":12,"x_max":594,"o":"m 222 921 l 215 967 q 212 992 212 989 q 222 1004 212 999 l 336 1057 q 342 1059 339 1059 q 355 1046 352 1059 l 539 127 q 551 91 544 102 q 578 68 558 80 q 594 46 594 58 l 594 16 q 581 0 594 0 l 355 0 q 336 16 336 0 l 336 46 q 358 73 336 62 q 385 111 385 87 q 383 127 385 118 l 355 269 l 178 269 l 149 132 q 147 119 147 123 q 178 75 147 99 q 197 46 197 58 l 197 16 q 178 0 197 0 l 36 0 q 12 16 12 0 l 12 52 q 27 75 12 66 q 64 132 55 92 l 222 921 m 268 703 l 197 355 l 336 355 l 268 703 m 251 1170 q 230 1118 251 1139 q 178 1097 208 1097 q 126 1118 148 1097 q 104 1170 104 1139 q 126 1222 104 1200 q 178 1243 147 1243 q 230 1222 208 1243 q 251 1170 251 1200 m 503 1170 q 481 1118 503 1139 q 429 1097 459 1097 q 377 1118 399 1097 q 356 1170 356 1139 q 377 1221 356 1200 q 429 1243 399 1243 q 481 1222 460 1243 q 503 1170 503 1200 z "},"Å":{"ha":598,"x_min":8,"x_max":590,"o":"m 356 1017 l 535 127 q 547 91 540 102 q 574 68 554 80 q 590 46 590 58 l 590 16 q 577 0 590 0 l 351 0 q 333 16 333 0 l 333 46 q 354 73 333 60 q 380 108 380 88 q 379 127 380 116 l 351 269 l 174 269 l 145 132 q 143 121 143 123 q 171 77 143 100 l 190 59 q 193 46 193 56 l 193 16 q 174 0 193 0 l 32 0 q 8 16 8 0 l 8 52 q 23 75 8 66 q 60 132 50 91 l 219 921 l 211 967 q 208 991 208 985 q 229 1010 208 1005 q 153 1132 153 1055 q 192 1225 153 1185 q 288 1265 230 1265 q 383 1227 344 1265 q 422 1133 422 1188 q 356 1017 422 1055 m 290 1213 q 231 1189 254 1213 q 207 1131 207 1165 q 231 1073 207 1097 q 288 1049 254 1049 q 346 1073 322 1049 q 370 1131 370 1097 q 345 1189 370 1166 q 290 1213 320 1213 m 264 703 l 193 355 l 333 355 l 264 703 z "},"Ç":{"ha":544,"x_min":41,"x_max":525,"o":"m 293 -11 q 41 522 41 33 q 114 925 41 781 q 307 1069 187 1069 q 407 1038 360 1069 q 425 1029 418 1029 q 434 1035 429 1029 q 450 1042 441 1042 l 488 1042 q 501 1025 501 1042 l 501 803 q 488 784 501 784 l 458 784 q 431 813 438 784 q 316 989 384 989 q 231 881 252 989 q 211 643 211 773 q 220 369 211 526 q 240 172 229 212 q 275 106 252 133 q 336 79 299 79 q 450 268 425 79 l 525 260 q 330 -11 506 4 q 408 -99 408 -30 q 238 -211 408 -211 q 185 -207 211 -211 l 172 -150 l 201 -151 q 294 -103 294 -151 q 252 -68 294 -68 l 230 -68 l 252 -11 l 293 -11 z "},"É":{"ha":517,"x_min":23,"x_max":504,"o":"m 504 0 l 39 0 q 23 16 23 0 l 23 46 q 45 77 23 60 q 65 126 65 93 l 65 929 q 40 982 65 964 q 23 1009 23 994 l 23 1042 q 39 1055 23 1055 l 388 1055 q 424 1057 397 1055 q 454 1059 448 1059 q 476 1046 476 1059 l 476 847 q 473 828 476 831 q 456 825 470 825 l 431 825 q 412 844 414 825 q 386 935 405 897 q 308 972 366 972 l 222 972 l 222 589 l 254 589 q 294 600 283 589 q 321 670 304 611 q 328 691 326 689 q 340 693 330 693 l 370 693 q 388 676 388 693 l 388 420 q 372 404 388 404 l 340 404 q 326 409 330 404 q 315 441 322 414 q 289 499 303 489 q 250 510 275 510 l 222 510 l 222 81 l 314 81 q 385 105 365 81 q 433 237 404 129 q 458 261 440 261 l 487 261 q 504 244 504 261 l 504 0 m 251 1304 l 405 1304 l 221 1095 l 155 1095 l 251 1304 z "},"Ñ":{"ha":587,"x_min":22,"x_max":565,"o":"m 422 485 l 422 929 q 397 981 422 964 q 379 1009 379 993 l 379 1039 q 397 1055 379 1055 l 550 1055 q 565 1040 565 1055 l 565 1009 q 548 981 565 994 q 522 929 522 963 l 522 17 q 502 -5 522 -5 l 472 -5 q 444 17 452 -5 l 163 756 l 163 126 q 189 73 163 91 q 207 46 207 62 l 207 16 q 189 0 207 0 l 37 0 q 22 14 22 0 l 22 46 q 39 73 22 61 q 65 126 65 92 l 65 929 q 39 981 65 964 q 22 1009 22 993 l 22 1039 q 39 1055 22 1055 l 183 1055 q 204 1051 199 1055 q 215 1033 210 1047 l 422 485 m 130 1099 l 130 1125 q 152 1209 130 1177 q 214 1241 174 1241 q 305 1206 248 1241 q 367 1181 349 1181 q 399 1222 399 1181 l 399 1238 l 457 1238 l 457 1207 q 434 1128 457 1159 q 375 1098 412 1098 q 277 1137 336 1098 q 220 1162 237 1162 q 187 1116 187 1162 l 187 1099 l 130 1099 z "},"Ö":{"ha":629,"x_min":41,"x_max":587,"o":"m 321 -14 q 110 128 180 -14 q 41 522 41 271 q 111 921 41 774 q 315 1069 181 1069 q 514 933 440 1069 q 587 530 587 797 q 514 122 587 258 q 321 -14 441 -14 m 314 59 q 370 98 345 59 q 406 314 395 138 q 417 637 417 490 q 401 856 417 770 q 366 967 385 942 q 317 991 347 991 q 272 972 292 991 q 240 904 252 954 q 221 712 229 855 q 212 415 212 569 q 237 141 212 223 q 314 59 262 59 m 262 1170 q 240 1118 262 1139 q 189 1097 219 1097 q 137 1118 159 1097 q 115 1170 115 1139 q 137 1222 115 1200 q 189 1243 158 1243 q 240 1222 219 1243 q 262 1170 262 1200 m 513 1170 q 492 1118 513 1139 q 440 1097 470 1097 q 388 1118 410 1097 q 367 1170 367 1139 q 388 1221 367 1200 q 440 1243 410 1243 q 492 1222 471 1243 q 513 1170 513 1200 z "},"Ü":{"ha":581,"x_min":22,"x_max":559,"o":"m 515 244 q 454 54 515 123 q 292 -14 392 -14 q 129 54 193 -14 q 65 231 65 121 l 65 929 q 39 981 65 964 q 22 1009 22 994 l 22 1039 q 39 1055 22 1055 l 251 1055 q 266 1040 266 1055 l 266 1009 q 248 981 266 994 q 222 929 222 964 l 222 224 q 316 83 222 83 q 418 248 418 83 l 418 929 q 393 981 418 964 q 375 1009 375 994 l 375 1039 q 393 1055 375 1055 l 544 1055 q 559 1040 559 1055 l 559 1009 q 541 981 559 994 q 515 929 515 964 l 515 244 m 238 1170 q 217 1118 238 1139 q 165 1097 195 1097 q 113 1118 135 1097 q 92 1170 92 1139 q 113 1222 92 1200 q 165 1243 134 1243 q 217 1222 195 1243 q 238 1170 238 1200 m 490 1170 q 468 1118 490 1139 q 416 1097 446 1097 q 365 1118 386 1097 q 343 1170 343 1139 q 365 1221 343 1200 q 416 1243 386 1243 q 468 1222 447 1243 q 490 1170 490 1200 z "},"á":{"ha":439,"x_min":20,"x_max":437,"o":"m 255 408 l 255 503 q 190 587 255 587 q 167 572 167 587 q 171 556 167 567 q 179 522 179 536 q 162 478 179 496 q 115 460 145 460 q 63 480 83 460 q 43 533 43 500 q 91 620 43 587 q 202 654 139 654 q 340 606 291 654 q 389 471 389 558 l 389 133 q 395 91 389 105 q 420 72 401 76 q 437 54 437 68 l 437 25 q 381 -11 437 -11 q 278 61 307 -11 q 153 -14 213 -14 q 58 34 95 -14 q 20 156 20 81 q 255 408 20 347 m 255 338 q 159 183 159 303 q 209 89 159 89 q 243 110 231 89 q 255 157 255 132 l 255 338 m 191 964 l 345 964 l 161 755 l 94 755 l 191 964 z "},"à":{"ha":439,"x_min":20,"x_max":437,"o":"m 255 408 l 255 503 q 190 587 255 587 q 167 572 167 587 q 171 556 167 567 q 179 522 179 536 q 162 478 179 496 q 115 460 145 460 q 63 480 83 460 q 43 533 43 500 q 91 620 43 587 q 202 654 139 654 q 340 606 291 654 q 389 471 389 558 l 389 133 q 395 91 389 105 q 420 72 401 76 q 437 54 437 68 l 437 25 q 381 -11 437 -11 q 278 61 307 -11 q 153 -14 213 -14 q 58 34 95 -14 q 20 156 20 81 q 255 408 20 347 m 255 338 q 159 183 159 303 q 209 89 159 89 q 243 110 231 89 q 255 157 255 132 l 255 338 m 94 966 l 246 966 l 345 756 l 276 756 l 94 966 z "},"â":{"ha":439,"x_min":20,"x_max":437,"o":"m 255 408 l 255 503 q 190 587 255 587 q 167 572 167 587 q 171 556 167 567 q 179 522 179 536 q 162 478 179 496 q 115 460 145 460 q 63 480 83 460 q 43 533 43 500 q 91 620 43 587 q 202 654 139 654 q 340 606 291 654 q 389 471 389 558 l 389 133 q 395 91 389 105 q 420 72 401 76 q 437 54 437 68 l 437 25 q 381 -11 437 -11 q 278 61 307 -11 q 153 -14 213 -14 q 58 34 95 -14 q 20 156 20 81 q 255 408 20 347 m 255 338 q 159 183 159 303 q 209 89 159 89 q 243 110 231 89 q 255 157 255 132 l 255 338 m 163 948 l 275 948 l 393 756 l 322 756 l 215 857 l 118 756 l 47 756 l 163 948 z "},"ä":{"ha":439,"x_min":20,"x_max":437,"o":"m 255 408 l 255 503 q 190 587 255 587 q 167 572 167 587 q 171 556 167 567 q 179 522 179 536 q 162 478 179 496 q 115 460 145 460 q 63 480 83 460 q 43 533 43 500 q 91 620 43 587 q 202 654 139 654 q 340 606 291 654 q 389 471 389 558 l 389 133 q 395 91 389 105 q 420 72 401 76 q 437 54 437 68 l 437 25 q 381 -11 437 -11 q 278 61 307 -11 q 153 -14 213 -14 q 58 34 95 -14 q 20 156 20 81 q 255 408 20 347 m 255 338 q 159 183 159 303 q 209 89 159 89 q 243 110 231 89 q 255 157 255 132 l 255 338 m 167 860 q 145 808 167 829 q 94 787 124 787 q 42 808 64 787 q 20 860 20 829 q 42 912 20 890 q 94 933 63 933 q 145 912 124 933 q 167 860 167 890 m 418 860 q 397 808 418 829 q 345 787 375 787 q 293 808 315 787 q 272 860 272 829 q 293 911 272 890 q 345 933 315 933 q 397 912 376 933 q 418 860 418 890 z "},"ã":{"ha":439,"x_min":20,"x_max":437,"o":"m 255 408 l 255 503 q 190 587 255 587 q 167 572 167 587 q 171 556 167 567 q 179 522 179 536 q 162 478 179 496 q 115 460 145 460 q 63 480 83 460 q 43 533 43 500 q 91 620 43 587 q 202 654 139 654 q 340 606 291 654 q 389 471 389 558 l 389 133 q 395 91 389 105 q 420 72 401 76 q 437 54 437 68 l 437 25 q 381 -11 437 -11 q 278 61 307 -11 q 153 -14 213 -14 q 58 34 95 -14 q 20 156 20 81 q 255 408 20 347 m 255 338 q 159 183 159 303 q 209 89 159 89 q 243 110 231 89 q 255 157 255 132 l 255 338 m 56 769 l 56 795 q 78 879 56 846 q 140 911 100 911 q 231 876 174 911 q 293 850 275 850 q 325 892 325 850 l 325 908 l 383 908 l 383 877 q 360 798 383 829 q 301 768 338 768 q 203 806 262 768 q 146 832 163 832 q 113 785 113 832 l 113 769 l 56 769 z "},"å":{"ha":439,"x_min":20,"x_max":437,"o":"m 255 408 l 255 503 q 190 587 255 587 q 167 572 167 587 q 171 556 167 567 q 179 522 179 536 q 162 478 179 496 q 115 460 145 460 q 63 480 83 460 q 43 533 43 500 q 91 620 43 587 q 202 654 139 654 q 340 606 291 654 q 389 471 389 558 l 389 133 q 395 91 389 105 q 420 72 401 76 q 437 54 437 68 l 437 25 q 381 -11 437 -11 q 278 61 307 -11 q 153 -14 213 -14 q 58 34 95 -14 q 20 156 20 81 q 255 408 20 347 m 255 338 q 159 183 159 303 q 209 89 159 89 q 243 110 231 89 q 255 157 255 132 l 255 338 m 357 860 q 317 765 357 804 q 222 725 277 725 q 127 765 166 725 q 87 860 87 804 q 127 955 87 916 q 222 994 167 994 q 317 955 278 994 q 357 860 357 916 m 304 859 q 280 917 304 893 q 222 941 256 941 q 164 917 189 941 q 140 859 140 893 q 164 802 140 826 q 222 778 189 778 q 280 802 256 778 q 304 859 304 826 z "},"ç":{"ha":423,"x_min":31,"x_max":408,"o":"m 238 -11 q 321 -96 321 -30 q 277 -178 321 -149 q 159 -208 233 -208 l 127 -208 l 115 -152 l 136 -152 q 189 -139 165 -152 q 212 -103 212 -125 q 172 -69 212 -69 q 159 -70 167 -69 l 181 -16 l 220 -11 q 31 312 31 20 q 94 571 31 488 q 251 654 157 654 q 360 615 317 654 q 403 520 403 576 q 382 463 403 484 q 332 441 362 441 q 287 459 304 441 q 270 502 270 477 q 287 550 270 524 q 294 568 294 562 q 258 589 294 589 q 202 557 223 589 q 181 432 181 526 l 181 282 q 262 84 181 84 q 334 213 325 84 l 408 205 q 238 -11 399 -10 z "},"é":{"ha":437,"x_min":31,"x_max":409,"o":"m 404 165 q 241 -14 388 -14 q 87 68 144 -14 q 31 313 31 150 q 84 563 31 472 q 229 654 138 654 q 359 583 310 654 q 409 397 409 513 l 409 340 q 392 323 409 323 l 180 323 l 180 268 q 198 127 180 176 q 260 79 216 79 q 331 178 311 79 l 404 165 m 279 398 l 279 492 q 229 589 279 589 q 180 465 180 589 l 180 398 l 279 398 m 235 964 l 389 964 l 205 755 l 139 755 l 235 964 z "},"è":{"ha":437,"x_min":31,"x_max":409,"o":"m 404 165 q 241 -14 388 -14 q 87 68 144 -14 q 31 313 31 150 q 84 563 31 472 q 229 654 138 654 q 359 583 310 654 q 409 397 409 513 l 409 340 q 392 323 409 323 l 180 323 l 180 268 q 198 127 180 176 q 260 79 216 79 q 331 178 311 79 l 404 165 m 279 398 l 279 492 q 229 589 279 589 q 180 465 180 589 l 180 398 l 279 398 m 33 966 l 185 966 l 284 756 l 215 756 l 33 966 z "},"ê":{"ha":437,"x_min":31,"x_max":409,"o":"m 404 165 q 241 -14 388 -14 q 87 68 144 -14 q 31 313 31 150 q 84 563 31 472 q 229 654 138 654 q 359 583 310 654 q 409 397 409 513 l 409 340 q 392 323 409 323 l 180 323 l 180 268 q 198 127 180 176 q 260 79 216 79 q 331 178 311 79 l 404 165 m 279 398 l 279 492 q 229 589 279 589 q 180 465 180 589 l 180 398 l 279 398 m 163 948 l 275 948 l 393 756 l 322 756 l 215 857 l 118 756 l 47 756 l 163 948 z "},"ë":{"ha":437,"x_min":31,"x_max":429,"o":"m 414 165 q 252 -14 398 -14 q 98 68 155 -14 q 41 313 41 150 q 95 563 41 472 q 239 654 149 654 q 370 583 320 654 q 419 397 419 513 l 419 340 q 402 323 419 323 l 191 323 l 191 268 q 208 127 191 176 q 270 79 226 79 q 341 178 321 79 l 414 165 m 289 398 l 289 492 q 239 589 289 589 q 191 465 191 589 l 191 398 l 289 398 m 177 860 q 156 808 177 829 q 104 787 134 787 q 52 808 74 787 q 31 860 31 829 q 52 912 31 890 q 104 933 73 933 q 156 912 134 933 q 177 860 177 890 m 429 860 q 407 808 429 829 q 355 787 385 787 q 303 808 325 787 q 282 860 282 829 q 303 911 282 890 q 355 933 325 933 q 407 912 386 933 q 429 860 429 890 z "},"í":{"ha":241,"x_min":14,"x_max":281,"o":"m 190 640 l 190 108 q 219 58 190 73 q 231 38 231 51 l 231 13 q 216 0 231 0 l 29 0 q 14 13 14 0 l 14 38 q 27 58 14 52 q 56 108 56 72 l 56 528 q 26 579 56 564 q 14 597 14 586 l 14 622 q 29 635 14 634 l 190 640 m 127 964 l 281 964 l 97 755 l 31 755 l 127 964 z "},"ì":{"ha":241,"x_min":-35,"x_max":232,"o":"m 191 640 l 191 108 q 220 58 191 73 q 232 38 232 51 l 232 13 q 217 0 232 0 l 30 0 q 15 13 15 0 l 15 38 q 28 58 15 52 q 56 108 56 72 l 56 528 q 27 579 56 564 q 15 597 15 586 l 15 622 q 30 635 15 634 l 191 640 m -35 966 l 117 966 l 216 756 l 147 756 l -35 966 z "},"î":{"ha":241,"x_min":-50,"x_max":296,"o":"m 190 640 l 190 108 q 219 58 190 73 q 231 38 231 51 l 231 13 q 216 0 231 0 l 29 0 q 14 13 14 0 l 14 38 q 27 58 14 52 q 56 108 56 72 l 56 528 q 26 579 56 564 q 14 597 14 586 l 14 622 q 29 635 14 634 l 190 640 m 66 948 l 178 948 l 296 756 l 225 756 l 118 857 l 21 756 l -50 756 l 66 948 z "},"ï":{"ha":241,"x_min":-47,"x_max":351,"o":"m 218 640 l 218 108 q 248 58 218 73 q 260 38 260 51 l 260 13 q 245 0 260 0 l 58 0 q 43 13 43 0 l 43 38 q 56 58 43 52 q 84 108 84 72 l 84 528 q 55 579 84 564 q 43 597 43 586 l 43 622 q 58 635 43 634 l 218 640 m 99 860 q 78 808 99 829 q 26 787 56 787 q -26 808 -4 787 q -47 860 -47 829 q -26 912 -47 890 q 26 933 -5 933 q 78 912 56 933 q 99 860 99 890 m 351 860 q 329 808 351 829 q 277 787 307 787 q 225 808 247 787 q 204 860 204 829 q 225 911 204 890 q 277 933 247 933 q 329 912 308 933 q 351 860 351 890 z "},"ñ":{"ha":474,"x_min":14,"x_max":452,"o":"m 56 106 l 56 528 q 26 579 56 565 q 14 597 14 585 l 14 622 q 29 635 14 634 l 190 640 l 190 584 q 316 646 248 646 q 396 606 367 646 q 425 504 425 567 l 425 98 q 443 54 425 77 q 452 39 452 43 l 452 11 q 441 0 452 0 l 276 0 q 264 11 264 0 l 264 46 q 272 57 264 52 q 290 91 290 71 l 290 504 q 255 553 290 553 q 190 513 221 553 l 190 98 q 205 58 190 75 q 213 46 213 50 l 213 9 q 203 0 213 0 l 35 0 q 24 10 24 0 l 24 46 q 33 58 24 51 q 56 106 56 75 m 69 769 l 69 795 q 91 879 69 846 q 154 911 113 911 q 245 876 187 911 q 307 850 288 850 q 338 892 338 850 l 338 908 l 397 908 l 397 877 q 374 798 397 829 q 315 768 351 768 q 217 806 276 768 q 159 832 177 832 q 127 785 127 832 l 127 769 l 69 769 z "},"ó":{"ha":477,"x_min":31,"x_max":446,"o":"m 232 654 q 446 317 446 654 q 393 72 446 158 q 241 -14 340 -14 q 85 70 140 -14 q 31 321 31 155 q 87 574 31 494 q 232 654 144 654 m 298 385 q 283 544 298 500 q 237 587 269 587 q 178 422 178 587 l 178 269 q 192 100 178 147 q 240 53 205 53 q 284 89 270 53 q 298 223 298 125 l 298 385 m 242 964 l 396 964 l 212 755 l 146 755 l 242 964 z "},"ò":{"ha":477,"x_min":31,"x_max":446,"o":"m 232 654 q 446 317 446 654 q 393 72 446 158 q 241 -14 340 -14 q 85 70 140 -14 q 31 321 31 155 q 87 574 31 494 q 232 654 144 654 m 298 385 q 283 544 298 500 q 237 587 269 587 q 178 422 178 587 l 178 269 q 192 100 178 147 q 240 53 205 53 q 284 89 270 53 q 298 223 298 125 l 298 385 m 80 966 l 233 966 l 332 756 l 262 756 l 80 966 z "},"ô":{"ha":477,"x_min":31,"x_max":446,"o":"m 232 654 q 446 317 446 654 q 393 72 446 158 q 241 -14 340 -14 q 85 70 140 -14 q 31 321 31 155 q 87 574 31 494 q 232 654 144 654 m 298 385 q 283 544 298 500 q 237 587 269 587 q 178 422 178 587 l 178 269 q 192 100 178 147 q 240 53 205 53 q 284 89 270 53 q 298 223 298 125 l 298 385 m 182 948 l 294 948 l 412 756 l 341 756 l 234 857 l 137 756 l 66 756 l 182 948 z "},"ö":{"ha":477,"x_min":31,"x_max":446,"o":"m 232 654 q 446 317 446 654 q 393 72 446 158 q 241 -14 340 -14 q 85 70 140 -14 q 31 321 31 155 q 87 574 31 494 q 232 654 144 654 m 298 385 q 283 544 298 500 q 237 587 269 587 q 178 422 178 587 l 178 269 q 192 100 178 147 q 240 53 205 53 q 284 89 270 53 q 298 223 298 125 l 298 385 m 186 860 q 164 808 186 829 q 113 787 143 787 q 61 808 83 787 q 39 860 39 829 q 61 912 39 890 q 113 933 82 933 q 164 912 143 933 q 186 860 186 890 m 437 860 q 416 808 437 829 q 364 787 394 787 q 312 808 334 787 q 291 860 291 829 q 312 911 291 890 q 364 933 334 933 q 416 912 395 933 q 437 860 437 890 z "},"õ":{"ha":477,"x_min":31,"x_max":446,"o":"m 232 654 q 446 317 446 654 q 393 72 446 158 q 241 -14 340 -14 q 85 70 140 -14 q 31 321 31 155 q 87 574 31 494 q 232 654 144 654 m 298 385 q 283 544 298 500 q 237 587 269 587 q 178 422 178 587 l 178 269 q 192 100 178 147 q 240 53 205 53 q 284 89 270 53 q 298 223 298 125 l 298 385 m 75 769 l 75 795 q 97 879 75 846 q 159 911 119 911 q 250 876 193 911 q 312 850 294 850 q 344 892 344 850 l 344 908 l 402 908 l 402 877 q 379 798 402 829 q 320 768 357 768 q 222 806 281 768 q 165 832 182 832 q 132 785 132 832 l 132 769 l 75 769 z "},"ú":{"ha":470,"x_min":20,"x_max":448,"o":"m 285 125 l 285 545 q 267 576 285 560 q 256 591 256 586 l 256 625 q 269 637 256 637 l 419 640 l 419 92 q 437 60 419 76 q 448 45 448 50 l 448 12 q 435 -1 448 0 l 285 -3 l 285 50 q 159 -9 212 -9 q 78 25 107 -9 q 50 115 50 60 l 50 545 q 31 576 50 560 q 20 591 20 586 l 20 625 q 34 637 20 637 l 184 640 l 184 133 q 221 84 184 84 q 285 125 254 84 m 238 964 l 392 964 l 208 755 l 142 755 l 238 964 z "},"ù":{"ha":470,"x_min":20,"x_max":448,"o":"m 285 125 l 285 545 q 267 576 285 560 q 256 591 256 586 l 256 625 q 269 637 256 637 l 419 640 l 419 92 q 437 60 419 76 q 448 45 448 50 l 448 12 q 435 -1 448 0 l 285 -3 l 285 50 q 159 -9 212 -9 q 78 25 107 -9 q 50 115 50 60 l 50 545 q 31 576 50 560 q 20 591 20 586 l 20 625 q 34 637 20 637 l 184 640 l 184 133 q 221 84 184 84 q 285 125 254 84 m 46 966 l 199 966 l 298 756 l 229 756 l 46 966 z "},"û":{"ha":470,"x_min":20,"x_max":448,"o":"m 285 125 l 285 545 q 267 576 285 560 q 256 591 256 586 l 256 625 q 269 637 256 637 l 419 640 l 419 92 q 437 60 419 76 q 448 45 448 50 l 448 12 q 435 -1 448 0 l 285 -3 l 285 50 q 159 -9 212 -9 q 78 25 107 -9 q 50 115 50 60 l 50 545 q 31 576 50 560 q 20 591 20 586 l 20 625 q 34 637 20 637 l 184 640 l 184 133 q 221 84 184 84 q 285 125 254 84 m 178 948 l 290 948 l 408 756 l 337 756 l 230 857 l 133 756 l 62 756 l 178 948 z "},"ü":{"ha":470,"x_min":20,"x_max":448,"o":"m 285 125 l 285 545 q 267 576 285 560 q 256 591 256 586 l 256 625 q 269 637 256 637 l 419 640 l 419 92 q 437 60 419 76 q 448 45 448 50 l 448 12 q 435 -1 448 0 l 285 -3 l 285 50 q 159 -9 212 -9 q 78 25 107 -9 q 50 115 50 60 l 50 545 q 31 576 50 560 q 20 591 20 586 l 20 625 q 34 637 20 637 l 184 640 l 184 133 q 221 84 184 84 q 285 125 254 84 m 182 860 q 160 808 182 829 q 109 787 139 787 q 57 808 79 787 q 35 860 35 829 q 57 912 35 890 q 109 933 78 933 q 160 912 139 933 q 182 860 182 890 m 433 860 q 412 808 433 829 q 360 787 390 787 q 308 808 330 787 q 287 860 287 829 q 308 911 287 890 q 360 933 330 933 q 412 912 391 933 q 433 860 433 890 z "},"†":{"ha":448,"x_min":39,"x_max":410,"o":"m 185 635 q 141 1059 172 935 l 302 1059 q 261 635 274 918 q 410 671 346 643 l 410 519 q 261 560 328 556 q 314 -195 264 127 l 128 -195 q 185 560 173 27 q 39 515 104 552 l 39 671 q 185 635 117 636 z "},"°":{"ha":367,"x_min":33,"x_max":333,"o":"m 183 1017 q 289 974 244 1017 q 333 867 333 931 q 289 761 333 805 q 183 717 245 717 q 77 761 121 717 q 33 867 33 804 q 78 974 33 931 q 183 1017 123 1017 m 183 963 q 116 935 144 963 q 87 867 87 907 q 116 800 87 827 q 183 772 144 772 q 251 800 222 772 q 279 867 279 827 q 251 935 279 907 q 183 963 222 963 z "},"¢":{"ha":420,"x_min":31,"x_max":408,"o":"m 212 768 l 260 768 l 260 649 q 362 611 320 647 q 404 517 404 574 q 384 460 404 481 q 333 439 363 439 q 288 457 304 439 q 271 500 271 475 q 285 543 271 519 q 295 566 295 559 q 260 587 295 587 q 199 545 216 587 q 181 395 181 504 l 181 300 q 263 82 181 82 q 334 211 330 82 l 408 203 q 365 50 407 108 q 263 -10 323 -8 l 263 -119 l 212 -119 l 212 -8 q 31 314 31 22 q 212 648 31 605 l 212 768 z "},"£":{"ha":651,"x_min":18,"x_max":633,"o":"m 184 541 q 119 772 119 676 q 186 946 119 875 q 355 1017 254 1017 q 503 968 441 1017 q 566 847 566 918 q 545 788 566 810 q 490 766 524 766 q 438 786 458 766 q 418 836 418 807 q 447 892 418 869 q 459 909 459 902 q 437 935 459 922 q 386 948 415 948 q 296 904 330 948 q 262 792 262 861 q 311 541 262 714 l 465 541 l 465 463 l 332 463 q 359 263 359 343 q 346 156 359 208 q 467 119 414 119 q 578 258 568 119 l 633 258 q 584 50 629 114 q 469 -14 539 -14 q 299 63 395 -14 q 146 -14 235 -14 q 56 19 94 -14 q 18 106 18 52 q 55 192 18 159 q 142 225 91 225 q 281 186 199 225 q 286 239 286 222 q 218 463 286 320 l 64 463 l 64 541 l 184 541 m 247 104 q 132 155 175 155 q 91 142 109 155 q 73 104 73 129 q 92 61 73 78 q 140 43 111 43 q 247 104 199 43 z "},"§":{"ha":477,"x_min":45,"x_max":432,"o":"m 149 625 q 73 723 99 680 q 47 827 47 766 q 106 987 47 924 q 269 1050 165 1050 q 386 1013 341 1050 q 430 928 430 976 q 411 873 430 897 q 361 850 393 850 q 314 869 334 850 q 295 918 295 888 q 299 941 295 928 q 302 960 302 954 q 258 986 302 986 q 185 954 212 986 q 158 878 158 921 q 177 813 158 841 q 249 732 195 785 q 389 574 346 639 q 432 445 432 509 q 323 231 432 343 q 403 124 376 172 q 429 15 429 75 q 365 -143 429 -79 q 212 -207 300 -207 q 97 -173 149 -207 q 45 -81 45 -140 q 65 -25 45 -47 q 116 -3 85 -3 q 162 -22 144 -3 q 179 -67 179 -41 q 174 -92 179 -77 q 170 -111 170 -104 q 212 -140 170 -140 q 288 -110 258 -140 q 319 -39 319 -80 q 300 28 319 -5 q 220 123 281 60 q 83 282 121 224 q 45 403 45 340 q 69 504 45 456 q 149 625 93 553 m 195 576 q 138 465 138 519 q 158 404 138 436 q 277 278 178 372 q 332 382 332 336 q 305 456 332 419 q 195 576 279 492 z "},"•":{"ha":486,"x_min":50,"x_max":437,"o":"m 243 721 q 380 664 323 721 q 437 528 437 608 q 380 391 437 448 q 243 334 323 334 q 106 390 163 334 q 50 528 50 447 q 106 664 50 608 q 243 721 163 721 z "},"¶":{"ha":707,"x_min":16,"x_max":699,"o":"m 410 991 l 410 -210 l 344 -210 l 344 524 q 86 605 156 530 q 16 789 16 680 q 97 983 16 911 q 333 1055 178 1055 l 686 1055 q 699 1044 699 1055 l 699 1013 q 687 1004 699 1004 l 641 1004 q 587 961 587 1004 l 587 -210 l 521 -210 l 521 991 l 410 991 z "},"ß":{"ha":478,"x_min":22,"x_max":447,"o":"m 234 653 q 285 703 277 661 q 293 810 293 745 q 279 958 293 917 q 237 1000 265 1000 q 187 912 187 1000 l 187 104 q 200 66 187 85 q 208 47 208 54 l 208 16 q 193 0 208 0 l 41 0 q 22 16 22 0 l 22 44 q 28 60 22 52 q 53 117 53 84 l 53 854 q 100 1014 53 959 q 227 1069 147 1069 q 368 1003 318 1069 q 418 828 418 937 q 313 625 418 673 q 420 515 394 599 q 447 311 447 432 q 294 -5 447 -5 q 254 16 254 -5 l 254 39 q 267 65 254 56 q 295 122 288 81 q 302 245 302 164 l 302 377 q 234 594 302 577 l 234 653 z "},"®":{"ha":1038,"x_min":38,"x_max":1000,"o":"m 519 1008 q 756 946 644 1008 q 935 770 869 884 q 1000 528 1000 656 q 859 188 1000 329 q 519 46 718 46 q 179 187 319 46 q 38 528 38 328 q 179 868 38 727 q 519 1008 321 1008 m 519 948 q 222 825 346 948 q 98 528 98 702 q 221 230 98 353 q 519 106 345 106 q 816 230 692 106 q 939 528 939 354 q 816 825 939 702 q 519 948 692 948 m 270 807 l 515 807 q 649 794 604 807 q 725 744 694 782 q 756 658 756 706 q 635 518 756 551 l 728 349 q 799 281 763 283 l 799 258 l 635 258 l 496 508 l 465 508 l 465 373 q 480 299 465 316 q 546 281 495 283 l 546 258 l 259 258 l 259 281 q 314 296 298 281 q 330 373 330 311 l 330 694 q 318 765 330 749 q 270 784 307 781 l 270 807 m 465 543 q 503 539 488 539 q 578 572 546 539 q 610 661 610 604 q 490 777 610 777 l 465 777 l 465 543 z "},"©":{"ha":1038,"x_min":38,"x_max":1000,"o":"m 519 1008 q 756 946 644 1008 q 935 770 869 884 q 1000 528 1000 656 q 859 188 1000 329 q 519 46 718 46 q 179 187 319 46 q 38 528 38 328 q 179 868 38 727 q 519 1008 321 1008 m 519 948 q 222 825 346 948 q 98 528 98 702 q 221 230 98 353 q 519 106 345 106 q 816 230 692 106 q 939 528 939 354 q 816 825 939 702 q 519 948 692 948 m 746 817 l 746 638 l 720 638 q 662 746 709 707 q 553 785 614 785 q 426 723 474 785 q 378 538 378 661 q 431 339 378 393 q 550 284 484 284 q 727 378 650 284 l 727 330 q 511 245 645 245 q 308 319 389 245 q 226 521 226 394 q 312 735 226 652 q 524 819 398 819 q 658 791 583 819 q 689 783 680 783 q 720 817 715 783 l 746 817 z "},"™":{"ha":1011,"x_min":16,"x_max":968,"o":"m 178 557 l 178 981 l 16 981 l 16 1055 l 422 1055 l 422 981 l 260 981 l 260 557 l 178 557 m 479 557 l 479 1055 l 602 1055 l 726 657 l 848 1055 l 968 1055 l 968 557 l 890 557 l 890 975 l 764 557 l 689 557 l 556 981 l 556 557 l 479 557 z "},"´":{"ha":463,"x_min":139,"x_max":389,"o":"m 235 964 l 389 964 l 205 755 l 139 755 l 235 964 z "},"¨":{"ha":463,"x_min":33,"x_max":431,"o":"m 179 860 q 158 808 179 829 q 106 787 136 787 q 54 808 76 787 q 33 860 33 829 q 54 912 33 890 q 106 933 75 933 q 158 912 136 933 q 179 860 179 890 m 431 860 q 409 808 431 829 q 357 787 387 787 q 306 808 327 787 q 284 860 284 829 q 306 911 284 890 q 357 933 327 933 q 409 912 388 933 q 431 860 431 890 z "},"≠":{"ha":621,"x_min":51,"x_max":570,"o":"m 401 646 l 570 646 l 570 570 l 372 570 l 318 433 l 570 433 l 570 357 l 288 357 l 191 110 l 123 110 l 220 357 l 51 357 l 51 433 l 250 433 l 303 570 l 51 570 l 51 646 l 333 646 l 430 893 l 498 893 l 401 646 z "},"Æ":{"ha":830,"x_min":8,"x_max":817,"o":"m 817 0 l 352 0 q 336 16 336 0 l 336 46 q 358 77 336 60 q 378 126 378 93 l 378 312 l 197 312 l 161 164 q 156 132 156 144 q 189 68 156 92 q 204 45 204 57 l 204 19 q 185 0 204 0 l 29 0 q 8 18 8 0 l 8 47 q 21 68 8 60 q 71 157 55 90 l 256 905 q 260 935 260 920 q 231 976 260 963 q 211 1000 211 985 l 211 1036 q 231 1055 211 1055 l 701 1055 q 736 1057 710 1055 q 766 1059 760 1059 q 788 1046 788 1059 l 788 847 q 785 828 788 831 q 768 825 783 825 l 743 825 q 724 844 727 825 q 698 935 718 897 q 621 972 679 972 l 535 972 l 535 589 l 566 589 q 606 600 595 589 q 633 670 617 611 q 641 691 639 689 q 653 693 643 693 l 683 693 q 701 676 701 693 l 701 420 q 684 404 701 404 l 653 404 q 639 409 643 404 q 628 441 635 414 q 602 499 616 489 q 562 510 587 510 l 535 510 l 535 81 l 627 81 q 697 105 677 81 q 746 237 717 129 q 770 261 752 261 l 800 261 q 817 244 817 261 l 817 0 m 378 970 l 360 970 l 219 398 l 378 398 l 378 970 z "},"Ø":{"ha":622,"x_min":38,"x_max":593,"o":"m 103 138 q 38 522 38 277 q 108 921 38 774 q 312 1069 178 1069 q 490 968 419 1069 l 536 1067 l 593 1037 l 528 897 q 585 530 585 758 q 513 124 585 262 q 322 -14 441 -14 q 143 72 209 -14 l 99 -21 l 42 8 l 103 138 m 210 369 l 405 786 q 374 948 395 904 q 314 991 354 991 q 259 959 280 991 q 223 793 237 927 q 210 463 210 660 q 210 369 210 420 m 413 652 l 219 236 q 311 59 237 59 q 369 100 346 59 q 404 266 391 141 q 416 518 416 390 q 413 652 416 551 z "},"∞":{"ha":990,"x_min":36,"x_max":954,"o":"m 443 597 q 550 749 490 712 q 694 785 610 785 q 816 756 760 785 q 913 661 872 726 q 954 503 954 596 q 879 297 954 376 q 717 218 804 218 q 612 251 663 218 q 488 412 560 285 q 269 254 412 254 q 145 289 195 254 q 65 375 95 324 q 36 505 36 427 q 98 684 36 614 q 244 753 159 753 q 344 725 297 753 q 443 597 391 696 m 508 460 q 605 321 555 360 q 720 281 654 281 q 861 345 807 281 q 915 503 915 408 q 857 666 915 600 q 724 732 798 732 q 634 703 669 732 q 579 634 599 673 q 515 479 559 595 l 508 460 m 423 545 q 242 691 358 691 q 123 642 173 691 q 73 505 73 592 q 122 359 73 412 q 229 307 172 307 q 319 341 272 307 q 416 522 367 376 l 423 545 z "},"±":{"ha":621,"x_min":51,"x_max":570,"o":"m 51 618 l 273 618 l 273 840 l 349 840 l 349 618 l 570 618 l 570 542 l 349 542 l 349 320 l 273 320 l 273 542 l 51 542 l 51 618 m 51 243 l 570 243 l 570 167 l 51 167 l 51 243 z "},"≤":{"ha":621,"x_min":51,"x_max":570,"o":"m 51 629 l 570 848 l 570 766 l 161 597 l 570 429 l 570 347 l 51 565 l 51 629 m 51 243 l 570 243 l 570 167 l 51 167 l 51 243 z "},"≥":{"ha":621,"x_min":51,"x_max":570,"o":"m 570 565 l 51 347 l 51 429 l 460 597 l 51 766 l 51 848 l 570 629 l 570 565 m 51 243 l 570 243 l 570 167 l 51 167 l 51 243 z "},"¥":{"ha":570,"x_min":8,"x_max":562,"o":"m 357 421 l 538 421 l 538 357 l 357 357 l 357 126 q 384 73 357 91 q 401 46 401 62 l 401 16 q 383 0 401 0 l 172 0 q 157 14 157 0 l 157 46 q 174 73 157 61 q 200 126 200 92 l 200 357 l 33 357 l 33 421 l 200 421 l 200 470 l 178 546 l 33 546 l 33 610 l 159 610 l 64 929 q 24 983 52 970 q 8 1006 8 989 l 8 1040 q 21 1055 8 1055 l 240 1055 q 259 1037 259 1055 l 259 1004 q 240 985 259 992 q 210 954 210 975 q 213 939 210 947 l 312 610 l 401 911 q 406 944 406 928 q 375 983 406 970 q 357 1003 357 991 l 357 1039 q 373 1055 357 1055 l 543 1055 q 562 1040 562 1055 l 562 1004 q 543 981 562 989 q 492 924 504 962 l 399 610 l 538 610 l 538 546 l 380 546 l 357 470 l 357 421 z "},"µ":{"ha":767,"x_min":37,"x_max":760,"o":"m 87 634 l 275 634 l 275 170 q 288 94 276 115 q 333 74 300 74 q 444 156 394 74 l 444 634 l 633 634 l 633 210 q 642 106 633 129 q 677 83 650 83 q 731 181 722 83 l 760 181 q 706 32 760 82 q 586 -19 652 -19 q 450 87 483 -19 q 253 -19 357 -19 q 151 19 201 -19 q 175 -130 151 -43 q 191 -210 191 -186 q 169 -275 191 -250 q 111 -299 147 -299 q 37 -218 37 -299 q 54 -126 37 -190 q 81 8 75 -41 q 87 176 87 58 l 87 634 z "},"∂":{"ha":680,"x_min":50,"x_max":655,"o":"m 248 780 l 220 780 q 456 972 290 972 q 568 941 524 972 q 634 858 612 909 q 655 701 655 806 q 591 304 655 468 q 449 62 526 140 q 264 -16 372 -16 q 105 47 159 -16 q 50 199 50 109 q 178 494 50 355 q 448 633 306 633 q 608 532 562 633 q 614 618 614 584 q 585 739 614 692 q 517 811 557 785 q 401 837 477 837 q 248 780 302 837 m 597 469 q 452 599 555 599 q 341 538 394 599 q 256 358 289 477 q 224 144 224 240 q 243 55 224 80 q 305 30 263 30 q 481 165 396 30 q 597 469 566 300 z "},"∑":{"ha":990,"x_min":29,"x_max":963,"o":"m 920 -222 l 29 -222 l 29 -198 l 483 420 l 29 1029 l 29 1055 l 896 1055 l 914 826 l 887 826 q 718 1000 869 1000 l 216 1000 l 597 479 l 171 -103 l 726 -103 q 820 -87 771 -103 q 894 -38 869 -72 q 936 64 919 -5 l 963 59 l 920 -222 z "},"∏":{"ha":1143,"x_min":31,"x_max":1112,"o":"m 841 1002 l 302 1002 l 302 -92 q 328 -174 302 -150 q 412 -197 353 -197 l 436 -197 l 436 -222 l 31 -222 l 31 -197 l 55 -197 q 142 -172 118 -197 q 165 -92 165 -146 l 165 924 q 139 1006 165 982 q 55 1029 112 1029 l 31 1029 l 31 1055 l 1112 1055 l 1112 1029 l 1088 1029 q 1002 1004 1026 1029 q 979 924 979 978 l 979 -92 q 1005 -174 979 -150 q 1088 -197 1031 -197 l 1112 -197 l 1112 -222 l 707 -222 l 707 -197 l 731 -197 q 818 -172 794 -197 q 841 -92 841 -146 l 841 1002 z "},"π":{"ha":762,"x_min":35,"x_max":705,"o":"m 705 634 l 705 494 l 559 494 q 534 207 534 296 q 593 99 534 99 q 673 214 661 99 l 699 214 q 555 -19 690 -19 q 426 205 426 -19 q 450 494 426 302 l 315 494 q 258 62 294 143 q 169 -19 223 -19 q 117 2 137 -19 q 97 50 97 22 q 135 153 97 86 q 185 288 170 217 q 203 494 201 359 l 180 494 q 60 415 92 494 l 35 415 q 98 552 60 498 q 169 621 136 607 q 276 634 201 634 l 705 634 z "},"∫":{"ha":380,"x_min":0,"x_max":380,"o":"m 136 607 l 144 909 q 195 1203 150 1142 q 295 1263 239 1263 q 355 1240 331 1263 q 380 1191 380 1217 q 362 1141 380 1161 q 317 1120 345 1120 q 266 1145 294 1120 q 239 1158 250 1158 q 212 1116 212 1158 q 218 1017 212 1087 q 243 566 243 738 q 235 247 243 519 q 182 -88 227 -26 q 80 -149 138 -149 q 23 -127 47 -149 q 0 -67 0 -105 q 18 -18 0 -37 q 61 0 35 0 q 109 -22 88 0 q 141 -43 127 -43 q 168 -2 168 -43 q 161 79 168 26 q 136 607 136 294 z "},"ª":{"ha":312,"x_min":20,"x_max":296,"o":"m 176 907 l 176 966 q 132 1026 176 1026 q 117 1018 117 1026 q 120 1004 117 1013 q 125 981 125 991 q 113 954 125 966 q 83 941 101 941 q 49 955 64 941 q 35 988 35 969 q 65 1044 35 1020 q 142 1069 96 1069 q 264 939 264 1069 l 264 720 q 286 684 264 686 q 296 675 296 684 l 296 656 q 258 629 296 629 q 190 675 210 629 q 109 629 151 629 q 45 660 70 629 q 20 739 20 690 q 176 907 20 863 m 176 862 q 112 758 112 834 q 145 694 112 694 q 168 709 159 694 q 176 743 176 723 l 176 862 z "},"º":{"ha":351,"x_min":38,"x_max":313,"o":"m 172 1069 q 313 847 313 1069 q 278 685 313 742 q 178 628 243 628 q 38 848 38 628 q 74 1013 38 957 q 172 1069 110 1069 m 216 889 q 174 1028 216 1028 q 136 911 136 1028 l 136 808 q 145 699 136 728 q 177 671 155 671 q 216 787 216 671 l 216 889 z "},"Ω":{"ha":1067,"x_min":22,"x_max":1044,"o":"m 418 243 l 441 0 l 22 0 l 22 256 l 46 256 q 69 187 49 209 q 154 165 89 165 l 376 165 l 372 212 q 129 346 201 248 q 56 559 56 444 q 181 828 56 716 q 533 941 307 941 q 885 828 760 941 q 1010 559 1010 716 q 938 346 1010 444 q 694 212 865 248 l 690 165 l 912 165 q 974 172 956 165 q 1005 198 992 179 q 1020 256 1018 217 l 1044 256 l 1044 0 l 625 0 l 648 243 q 772 543 772 286 q 699 812 772 737 q 533 888 627 888 q 403 845 459 888 q 321 735 347 802 q 294 551 294 667 q 418 243 294 286 z "},"æ":{"ha":650,"x_min":20,"x_max":623,"o":"m 259 407 l 259 500 q 242 564 259 538 q 195 590 226 590 q 171 574 171 590 q 175 559 171 570 q 182 524 182 541 q 163 480 182 498 q 115 463 143 463 q 64 484 84 463 q 44 533 44 505 q 89 618 44 583 q 199 654 134 654 q 332 600 277 654 q 446 654 380 654 q 574 584 524 654 q 623 401 623 515 l 623 340 q 608 323 623 323 l 393 323 l 393 250 q 475 80 393 80 q 549 176 533 80 l 623 166 q 454 -14 604 -14 q 292 83 356 -14 q 150 -10 230 -10 q 56 35 92 -10 q 20 154 20 79 q 259 407 20 353 m 393 401 l 498 401 l 498 444 q 446 589 498 589 q 393 461 393 589 l 393 401 m 259 338 q 159 182 159 306 q 210 88 159 88 q 259 172 259 88 l 259 338 z "},"ø":{"ha":477,"x_min":31,"x_max":454,"o":"m 83 74 q 31 321 31 158 q 86 571 31 488 q 239 654 141 654 q 374 593 319 654 l 421 677 l 454 644 l 402 550 q 446 317 446 464 q 393 72 446 158 q 241 -14 340 -14 q 115 34 165 -14 l 77 -35 l 41 0 l 83 74 m 178 244 l 296 453 q 278 558 291 529 q 237 587 264 587 q 178 422 178 587 l 178 269 l 178 244 m 298 363 l 183 157 q 240 53 192 53 q 284 89 270 53 q 298 223 298 125 l 298 363 z "},"¿":{"ha":449,"x_min":30,"x_max":418,"o":"m 333 779 q 307 718 333 743 q 245 692 281 692 q 184 718 210 692 q 159 779 159 743 q 184 841 159 815 q 245 867 210 867 q 307 841 281 867 q 333 779 333 815 m 210 539 l 210 573 q 222 587 210 587 l 267 587 q 279 572 279 587 l 279 493 q 222 165 279 357 q 182 -35 182 31 q 243 -133 182 -133 q 277 -125 262 -133 q 292 -108 292 -117 q 281 -90 292 -102 q 260 -39 260 -66 q 282 14 260 -9 q 338 37 304 37 q 397 12 375 37 q 418 -49 418 -13 q 368 -162 418 -114 q 233 -211 317 -211 q 82 -151 135 -211 q 30 5 30 -91 q 113 248 30 102 q 210 539 210 414 z "},"¡":{"ha":260,"x_min":36,"x_max":212,"o":"m 212 777 q 186 716 212 741 q 124 690 160 690 q 63 716 88 690 q 37 777 37 741 q 63 839 37 813 q 124 865 88 865 q 186 839 161 865 q 212 777 212 814 m 87 570 q 102 586 88 586 l 143 586 q 157 570 156 586 q 195 30 159 325 q 208 -96 208 -66 q 122 -211 208 -211 q 36 -100 36 -211 q 50 54 36 -58 q 84 446 80 296 l 87 570 z "},"¬":{"ha":621,"x_min":51,"x_max":570,"o":"m 51 646 l 570 646 l 570 357 l 494 357 l 494 570 l 51 570 l 51 646 z "},"√":{"ha":762,"x_min":57,"x_max":762,"o":"m 712 1267 l 762 1267 l 551 -53 l 214 640 l 80 578 l 57 621 l 261 724 l 536 165 l 712 1267 z "},"ƒ":{"ha":354,"x_min":-99,"x_max":345,"o":"m 189 568 l 189 64 q 133 -139 189 -61 q -12 -217 77 -217 q -76 -199 -53 -217 q -99 -151 -99 -181 q -80 -110 -99 -126 q -36 -94 -62 -94 q 4 -108 -11 -94 q 19 -142 19 -123 q 16 -162 19 -149 q 55 -38 55 -149 l 55 568 l 19 568 q 8 577 8 568 l 8 610 q 23 629 8 621 q 48 656 42 639 q 57 730 54 673 q 124 980 64 891 q 262 1069 184 1069 q 321 1048 297 1069 q 345 994 345 1027 q 328 948 345 968 q 280 928 311 928 q 230 965 244 928 q 216 982 223 982 q 189 857 189 982 l 189 640 l 239 640 q 256 625 256 640 l 256 580 q 241 568 256 568 l 189 568 z "},"≈":{"ha":621,"x_min":50,"x_max":572,"o":"m 531 699 l 572 699 q 535 582 572 624 q 442 540 498 540 q 386 549 416 540 q 264 596 357 557 q 168 624 196 624 q 90 540 102 624 l 50 540 q 90 662 52 625 q 176 699 128 699 q 357 644 224 699 q 455 614 425 614 q 531 699 522 614 m 531 466 l 572 466 q 535 349 572 391 q 442 307 498 307 q 386 316 416 307 q 264 363 357 325 q 168 391 196 391 q 90 307 102 391 l 50 307 q 90 429 52 391 q 176 466 128 466 q 357 410 225 466 q 455 382 425 382 q 531 466 522 382 z "},"∆":{"ha":854,"x_min":20,"x_max":833,"o":"m 833 0 l 20 0 l 446 941 l 833 0 m 673 56 l 403 711 l 104 56 l 673 56 z "},"«":{"ha":479,"x_min":28,"x_max":450,"o":"m 390 629 l 450 629 l 355 319 l 450 11 l 391 11 l 233 319 l 390 629 m 186 629 l 245 629 l 150 319 l 245 11 l 186 11 l 28 319 l 186 629 z "},"»":{"ha":479,"x_min":31,"x_max":452,"o":"m 90 629 l 247 319 l 90 11 l 31 11 l 125 319 l 31 629 l 90 629 m 294 629 l 452 319 l 294 11 l 235 11 l 330 319 l 235 629 l 294 629 z "},"…":{"ha":1042,"x_min":87,"x_max":956,"o":"m 608 73 q 583 12 608 37 q 521 -14 557 -14 q 459 12 485 -14 q 434 73 434 37 q 460 135 434 109 q 521 160 486 160 q 583 135 557 160 q 608 73 608 109 m 261 73 q 235 12 261 37 q 174 -14 210 -14 q 112 12 138 -14 q 87 73 87 37 q 112 135 87 109 q 174 160 138 160 q 236 135 210 160 q 261 73 261 109 m 956 73 q 930 12 956 37 q 868 -14 904 -14 q 807 12 832 -14 q 781 73 781 37 q 807 135 781 109 q 868 160 833 160 q 930 135 905 160 q 956 73 956 109 z "}," ":{"ha":241,"x_min":0,"x_max":0,"o":""},"À":{"ha":606,"x_min":12,"x_max":594,"o":"m 222 921 l 215 967 q 212 992 212 989 q 222 1004 212 999 l 336 1057 q 342 1059 339 1059 q 355 1046 352 1059 l 539 127 q 551 91 544 102 q 578 68 558 80 q 594 46 594 58 l 594 16 q 581 0 594 0 l 355 0 q 336 16 336 0 l 336 46 q 358 73 336 62 q 385 111 385 87 q 383 127 385 118 l 355 269 l 178 269 l 149 132 q 147 119 147 123 q 178 75 147 99 q 197 46 197 58 l 197 16 q 178 0 197 0 l 36 0 q 12 16 12 0 l 12 52 q 27 75 12 66 q 64 132 55 92 l 222 921 m 268 703 l 197 355 l 336 355 l 268 703 m 144 1307 l 297 1307 l 396 1097 l 327 1097 l 144 1307 z "},"Ã":{"ha":606,"x_min":12,"x_max":594,"o":"m 222 921 l 215 967 q 212 992 212 989 q 222 1004 212 999 l 336 1057 q 342 1059 339 1059 q 355 1046 352 1059 l 539 127 q 551 91 544 102 q 578 68 558 80 q 594 46 594 58 l 594 16 q 581 0 594 0 l 355 0 q 336 16 336 0 l 336 46 q 358 73 336 62 q 385 111 385 87 q 383 127 385 118 l 355 269 l 178 269 l 149 132 q 147 119 147 123 q 178 75 147 99 q 197 46 197 58 l 197 16 q 178 0 197 0 l 36 0 q 12 16 12 0 l 12 52 q 27 75 12 66 q 64 132 55 92 l 222 921 m 268 703 l 197 355 l 336 355 l 268 703 m 140 1099 l 140 1125 q 162 1209 140 1177 q 224 1241 184 1241 q 315 1206 258 1241 q 377 1181 359 1181 q 409 1222 409 1181 l 409 1238 l 467 1238 l 467 1207 q 445 1128 467 1159 q 385 1098 422 1098 q 288 1137 347 1098 q 230 1162 248 1162 q 197 1116 197 1162 l 197 1099 l 140 1099 z "},"Õ":{"ha":629,"x_min":41,"x_max":587,"o":"m 321 -14 q 110 128 180 -14 q 41 522 41 271 q 111 921 41 774 q 315 1069 181 1069 q 514 933 440 1069 q 587 530 587 797 q 514 122 587 258 q 321 -14 441 -14 m 314 59 q 370 98 345 59 q 406 314 395 138 q 417 637 417 490 q 401 856 417 770 q 366 967 385 942 q 317 991 347 991 q 272 972 292 991 q 240 904 252 954 q 221 712 229 855 q 212 415 212 569 q 237 141 212 223 q 314 59 262 59 m 151 1099 l 151 1125 q 173 1209 151 1177 q 235 1241 195 1241 q 326 1206 269 1241 q 388 1181 370 1181 q 420 1222 420 1181 l 420 1238 l 478 1238 l 478 1207 q 455 1128 478 1159 q 396 1098 433 1098 q 298 1137 357 1098 q 241 1162 258 1162 q 208 1116 208 1162 l 208 1099 l 151 1099 z "},"Œ":{"ha":854,"x_min":41,"x_max":841,"o":"m 481 0 q 432 -5 469 0 q 341 -14 372 -14 q 41 520 41 -14 q 116 920 41 782 q 326 1059 192 1059 q 355 1058 339 1059 q 431 1055 408 1055 l 725 1055 q 749 1056 729 1055 q 791 1059 785 1059 q 812 1046 812 1059 l 812 847 q 810 828 812 831 q 793 825 807 825 l 768 825 q 749 844 751 825 q 721 937 741 901 q 644 972 701 972 l 559 972 l 559 589 l 590 589 q 631 600 620 589 q 658 670 642 612 q 666 691 663 690 q 677 693 669 693 l 707 693 q 725 676 725 693 l 725 420 q 709 404 725 404 l 677 404 q 664 409 668 404 q 652 441 660 414 q 629 496 642 483 q 587 510 616 510 l 559 510 l 559 81 l 650 81 q 721 103 700 81 q 770 237 741 126 q 795 261 777 261 l 824 261 q 841 244 841 261 l 841 0 l 481 0 m 402 762 q 315 981 402 981 q 236 895 257 981 q 216 602 216 809 l 216 366 q 241 129 216 193 q 315 65 267 65 q 382 125 362 65 q 402 313 402 184 l 402 762 z "},"œ":{"ha":692,"x_min":31,"x_max":665,"o":"m 363 42 q 239 -11 307 -11 q 31 313 31 -11 q 86 568 31 481 q 241 654 141 654 q 368 602 313 654 q 485 654 419 654 q 616 579 568 654 q 665 381 665 505 l 665 339 q 648 322 665 322 l 429 322 l 429 294 q 514 82 429 82 q 587 180 573 82 l 661 168 q 491 -11 647 -11 q 363 42 416 -11 m 538 402 l 538 452 q 484 589 538 589 q 429 481 429 589 l 429 402 l 538 402 m 296 459 q 241 586 296 586 q 192 538 205 586 q 178 393 178 490 l 178 209 q 237 54 178 54 q 296 222 296 54 l 296 459 z "},"–":{"ha":694,"x_min":-8,"x_max":703,"o":"m -8 368 l 703 368 l 703 290 l -8 290 l -8 368 z "},"—":{"ha":1389,"x_min":-8,"x_max":1398,"o":"m -8 368 l 1398 368 l 1398 290 l -8 290 l -8 368 z "},"“":{"ha":461,"x_min":31,"x_max":452,"o":"m 194 1069 l 233 1019 q 130 880 132 932 q 208 791 208 861 q 181 729 208 753 q 120 704 155 704 q 56 734 81 704 q 31 810 31 764 q 194 1069 31 945 m 412 1069 l 452 1019 q 348 880 351 932 q 426 791 426 861 q 400 729 426 753 q 339 704 374 704 q 274 734 298 704 q 250 810 250 765 q 412 1069 250 940 z "},"”":{"ha":461,"x_min":9,"x_max":431,"o":"m 267 704 l 228 753 q 332 892 329 840 q 254 981 254 911 q 280 1044 254 1019 q 340 1069 306 1069 q 406 1038 381 1069 q 431 962 431 1007 q 267 704 431 827 m 48 704 l 9 753 q 113 892 110 840 q 35 981 35 911 q 61 1044 35 1019 q 121 1069 87 1069 q 187 1038 163 1069 q 212 962 212 1007 q 48 704 212 827 z "},"‘":{"ha":242,"x_min":31,"x_max":233,"o":"m 194 1069 l 233 1019 q 130 880 132 932 q 208 791 208 861 q 181 729 208 753 q 120 704 155 704 q 56 734 81 704 q 31 810 31 764 q 194 1069 31 945 z "},"’":{"ha":242,"x_min":9,"x_max":212,"o":"m 48 704 l 9 753 q 113 892 110 840 q 35 981 35 911 q 61 1044 35 1019 q 121 1069 87 1069 q 187 1038 163 1069 q 212 962 212 1007 q 48 704 212 827 z "},"÷":{"ha":621,"x_min":51,"x_max":570,"o":"m 264 715 q 278 747 264 732 q 311 762 292 762 q 343 748 330 762 q 357 715 357 734 q 343 681 357 694 q 311 668 329 668 q 278 682 292 668 q 264 715 264 695 m 51 540 l 570 540 l 570 464 l 51 464 l 51 540 m 264 288 q 278 321 264 308 q 311 335 292 335 q 343 321 329 335 q 357 288 357 308 q 343 256 357 269 q 311 242 330 242 q 278 256 292 242 q 264 288 264 271 z "},"◊":{"ha":686,"x_min":31,"x_max":655,"o":"m 372 964 l 655 481 l 372 0 l 296 0 l 31 481 l 296 964 l 372 964 m 337 899 l 106 481 l 337 65 l 580 481 l 337 899 z "},"ÿ":{"ha":438,"x_min":2,"x_max":430,"o":"m 181 4 l 56 522 q 19 579 47 558 q 8 594 8 588 l 8 627 q 22 640 8 640 l 201 640 q 213 629 213 640 l 213 594 q 201 581 213 585 q 176 545 176 572 q 181 509 176 530 l 242 251 l 303 502 q 307 528 307 518 q 277 575 307 552 q 261 594 261 588 l 261 628 q 272 640 261 640 l 418 640 q 430 628 430 640 l 430 594 q 417 578 430 586 q 372 509 384 559 l 261 47 q 213 -116 232 -75 q 160 -182 194 -157 q 83 -207 125 -207 q 24 -189 46 -207 q 2 -140 2 -170 q 22 -95 2 -110 q 66 -80 41 -80 q 140 -113 93 -80 q 181 4 168 -67 m 163 860 q 142 808 163 829 q 90 787 121 787 q 39 808 60 787 q 17 860 17 829 q 38 912 17 890 q 90 933 60 933 q 142 912 121 933 q 163 860 163 890 m 415 860 q 393 808 415 829 q 342 787 372 787 q 290 808 311 787 q 269 860 269 829 q 290 911 269 890 q 342 933 311 933 q 394 912 372 933 q 415 860 415 890 z "},"Ÿ":{"ha":570,"x_min":8,"x_max":562,"o":"m 357 470 l 357 126 q 384 73 357 91 q 401 46 401 62 l 401 16 q 383 0 401 0 l 172 0 q 157 14 157 0 l 157 46 q 174 73 157 61 q 200 126 200 92 l 200 470 l 64 929 q 24 983 52 970 q 8 1006 8 989 l 8 1040 q 21 1055 8 1055 l 240 1055 q 259 1037 259 1055 l 259 1004 q 240 985 259 992 q 210 954 210 975 q 213 939 210 947 l 312 610 l 401 911 q 406 944 406 928 q 375 983 406 970 q 357 1003 357 991 l 357 1039 q 373 1055 357 1055 l 543 1055 q 562 1040 562 1055 l 562 1004 q 543 981 562 989 q 492 924 504 962 l 357 470 m 233 1170 q 211 1118 233 1139 q 159 1097 190 1097 q 108 1118 130 1097 q 86 1170 86 1139 q 107 1222 86 1200 q 159 1243 129 1243 q 211 1222 190 1243 q 233 1170 233 1200 m 484 1170 q 463 1118 484 1139 q 411 1097 441 1097 q 359 1118 380 1097 q 338 1170 338 1139 q 359 1221 338 1200 q 411 1243 380 1243 q 463 1222 441 1243 q 484 1170 484 1200 z "},"∕":{"ha":115,"x_min":-203,"x_max":318,"o":"m 242 1066 l 318 1066 l -125 -24 l -203 -24 l 242 1066 z "},"€":{"ha":536,"x_min":24,"x_max":489,"o":"m 489 27 q 476 7 489 7 l 437 7 q 426 15 431 8 q 412 23 417 23 q 400 19 406 23 q 307 -14 349 -14 q 133 125 195 -14 q 74 388 87 228 l 24 388 l 37 452 l 71 452 q 70 484 70 473 q 71 540 70 505 l 24 540 l 37 604 l 75 604 q 307 1019 109 1019 q 400 987 345 1019 q 412 983 407 983 q 426 991 417 983 q 437 998 431 998 l 476 998 q 489 979 489 998 l 489 756 q 476 737 489 737 l 446 737 q 413 785 426 737 q 307 947 370 947 q 222 680 222 947 l 222 604 l 392 604 l 378 540 l 222 540 l 222 452 l 355 452 l 342 388 l 222 388 l 222 281 q 307 53 222 53 q 413 220 369 53 q 446 269 426 269 l 476 269 q 489 250 489 269 l 489 27 z "},"‹":{"ha":275,"x_min":28,"x_max":245,"o":"m 186 629 l 245 629 l 150 319 l 245 11 l 186 11 l 28 319 l 186 629 z "},"›":{"ha":275,"x_min":31,"x_max":247,"o":"m 90 629 l 247 319 l 90 11 l 31 11 l 125 319 l 31 629 l 90 629 z "},"":{"ha":473,"x_min":7,"x_max":460,"o":"m 422 645 l 422 108 q 448 60 422 79 q 460 46 460 52 l 460 12 q 449 0 460 0 l 265 0 q 252 12 252 0 l 252 46 q 264 62 252 55 q 288 103 288 76 l 288 568 l 189 568 l 189 108 q 215 60 189 79 q 227 46 227 52 l 227 12 q 215 0 227 0 l 32 0 q 18 12 18 0 l 18 46 q 31 62 18 55 q 54 103 54 76 l 54 568 l 19 568 q 7 577 7 568 l 7 595 q 31 625 7 608 q 54 656 47 638 q 64 730 60 673 q 151 988 79 911 q 305 1065 222 1065 q 375 1043 347 1065 q 402 985 402 1021 q 386 939 402 958 q 339 920 370 920 q 275 967 298 920 q 254 988 264 988 q 210 934 231 988 q 189 787 189 880 l 189 640 l 302 640 q 422 645 353 640 z "},"":{"ha":475,"x_min":8,"x_max":462,"o":"m 189 568 l 189 108 q 216 60 189 79 q 227 46 227 52 l 227 12 q 216 0 227 0 l 32 0 q 18 12 18 0 l 18 46 q 31 62 18 55 q 55 103 55 76 l 55 568 l 19 568 q 8 576 8 568 l 8 598 q 24 617 8 607 q 54 656 45 631 q 66 736 63 682 q 146 980 76 898 q 306 1063 216 1063 q 340 1061 319 1063 q 372 1059 361 1059 q 424 1068 389 1059 l 424 108 q 450 60 424 79 q 462 46 462 52 l 462 12 q 450 0 462 0 l 267 0 q 253 12 253 0 l 253 46 q 266 62 253 55 q 290 103 290 76 l 290 568 l 189 568 m 290 640 l 290 928 q 277 960 278 935 q 258 988 275 988 q 211 930 232 988 q 189 810 189 873 l 189 640 l 290 640 z "},"‡":{"ha":448,"x_min":41,"x_max":408,"o":"m 182 148 q 149 430 176 293 q 186 718 178 541 q 41 679 111 713 l 41 830 q 182 792 117 792 q 143 1059 172 948 l 300 1059 q 264 792 270 910 q 408 830 338 795 l 408 679 q 264 718 341 710 q 300 435 273 536 q 264 148 269 310 q 408 187 330 153 l 408 35 q 264 72 339 67 q 300 -195 267 -28 l 143 -195 q 186 72 172 -95 q 41 35 121 71 l 41 187 q 182 148 125 153 z "},"∙":{"ha":347,"x_min":80,"x_max":267,"o":"m 174 601 q 239 573 212 601 q 267 508 267 546 q 239 442 267 469 q 174 414 212 414 q 107 442 135 414 q 80 508 80 469 q 108 574 80 547 q 174 601 136 601 z "},"‚":{"ha":238,"x_min":5,"x_max":208,"o":"m 44 -204 l 5 -154 q 109 -15 106 -68 q 31 73 31 3 q 57 136 31 111 q 117 161 83 161 q 183 130 159 161 q 208 54 208 100 q 44 -204 208 -75 z "},"„":{"ha":461,"x_min":9,"x_max":431,"o":"m 267 -204 l 228 -154 q 332 -15 329 -68 q 254 73 254 3 q 280 136 254 111 q 340 161 306 161 q 406 130 381 161 q 431 54 431 100 q 267 -204 431 -80 m 48 -204 l 9 -154 q 113 -15 110 -68 q 35 73 35 3 q 61 136 35 111 q 121 161 87 161 q 187 130 163 161 q 212 54 212 100 q 48 -204 212 -75 z "},"‰":{"ha":1212,"x_min":31,"x_max":1181,"o":"m 197 524 q 71 598 112 524 q 31 797 31 672 q 71 996 31 924 q 193 1069 111 1069 q 313 996 273 1069 q 353 795 353 923 q 309 591 353 657 q 197 524 264 524 m 235 873 q 225 996 235 968 q 191 1025 216 1025 q 157 995 168 1025 q 146 882 146 965 l 146 737 q 155 610 146 653 q 194 567 163 567 q 225 599 216 567 q 235 737 235 631 l 235 873 m 604 1066 l 680 1066 l 237 -24 l 159 -24 l 604 1066 m 652 -7 q 526 67 567 -7 q 486 267 486 142 q 528 469 486 401 q 648 538 571 538 q 769 465 728 538 q 809 264 809 392 q 764 60 809 126 q 652 -7 719 -7 m 690 342 q 681 463 690 431 q 647 494 672 494 q 612 465 623 494 q 602 351 602 435 l 602 207 q 611 80 602 123 q 649 37 619 37 q 682 74 674 37 q 690 207 690 111 l 690 342 m 1024 -7 q 900 65 943 -7 q 858 267 858 136 q 898 465 858 393 q 1021 538 939 538 q 1140 466 1099 538 q 1181 264 1181 395 q 1136 60 1181 127 q 1024 -7 1091 -7 m 1063 342 q 1053 466 1063 437 q 1019 494 1043 494 q 985 465 995 494 q 975 351 975 435 l 975 207 q 985 70 975 103 q 1021 37 996 37 q 1055 75 1046 37 q 1063 207 1063 113 l 1063 342 z "},"Â":{"ha":606,"x_min":12,"x_max":594,"o":"m 222 921 l 215 967 q 212 992 212 989 q 222 1004 212 999 l 336 1057 q 342 1059 339 1059 q 355 1046 352 1059 l 539 127 q 551 91 544 102 q 578 68 558 80 q 594 46 594 58 l 594 16 q 581 0 594 0 l 355 0 q 336 16 336 0 l 336 46 q 358 73 336 62 q 385 111 385 87 q 383 127 385 118 l 355 269 l 178 269 l 149 132 q 147 119 147 123 q 178 75 147 99 q 197 46 197 58 l 197 16 q 178 0 197 0 l 36 0 q 12 16 12 0 l 12 52 q 27 75 12 66 q 64 132 55 92 l 222 921 m 268 703 l 197 355 l 336 355 l 268 703 m 246 1289 l 359 1289 l 476 1097 l 406 1097 l 298 1197 l 201 1097 l 130 1097 l 246 1289 z "},"Ê":{"ha":517,"x_min":23,"x_max":504,"o":"m 504 0 l 39 0 q 23 16 23 0 l 23 46 q 45 77 23 60 q 65 126 65 93 l 65 929 q 40 982 65 964 q 23 1009 23 994 l 23 1042 q 39 1055 23 1055 l 388 1055 q 424 1057 397 1055 q 454 1059 448 1059 q 476 1046 476 1059 l 476 847 q 473 828 476 831 q 456 825 470 825 l 431 825 q 412 844 414 825 q 386 935 405 897 q 308 972 366 972 l 222 972 l 222 589 l 254 589 q 294 600 283 589 q 321 670 304 611 q 328 691 326 689 q 340 693 330 693 l 370 693 q 388 676 388 693 l 388 420 q 372 404 388 404 l 340 404 q 326 409 330 404 q 315 441 322 414 q 289 499 303 489 q 250 510 275 510 l 222 510 l 222 81 l 314 81 q 385 105 365 81 q 433 237 404 129 q 458 261 440 261 l 487 261 q 504 244 504 261 l 504 0 m 200 1289 l 313 1289 l 430 1097 l 359 1097 l 252 1197 l 155 1097 l 84 1097 l 200 1289 z "},"Á":{"ha":606,"x_min":12,"x_max":594,"o":"m 222 921 l 215 967 q 212 992 212 989 q 222 1004 212 999 l 336 1057 q 342 1059 339 1059 q 355 1046 352 1059 l 539 127 q 551 91 544 102 q 578 68 558 80 q 594 46 594 58 l 594 16 q 581 0 594 0 l 355 0 q 336 16 336 0 l 336 46 q 358 73 336 62 q 385 111 385 87 q 383 127 385 118 l 355 269 l 178 269 l 149 132 q 147 119 147 123 q 178 75 147 99 q 197 46 197 58 l 197 16 q 178 0 197 0 l 36 0 q 12 16 12 0 l 12 52 q 27 75 12 66 q 64 132 55 92 l 222 921 m 268 703 l 197 355 l 336 355 l 268 703 m 307 1304 l 461 1304 l 277 1095 l 211 1095 l 307 1304 z "},"Ë":{"ha":517,"x_min":23,"x_max":504,"o":"m 504 0 l 39 0 q 23 16 23 0 l 23 46 q 45 77 23 60 q 65 126 65 93 l 65 929 q 40 982 65 964 q 23 1009 23 994 l 23 1042 q 39 1055 23 1055 l 388 1055 q 424 1057 397 1055 q 454 1059 448 1059 q 476 1046 476 1059 l 476 847 q 473 828 476 831 q 456 825 470 825 l 431 825 q 412 844 414 825 q 386 935 405 897 q 308 972 366 972 l 222 972 l 222 589 l 254 589 q 294 600 283 589 q 321 670 304 611 q 328 691 326 689 q 340 693 330 693 l 370 693 q 388 676 388 693 l 388 420 q 372 404 388 404 l 340 404 q 326 409 330 404 q 315 441 322 414 q 289 499 303 489 q 250 510 275 510 l 222 510 l 222 81 l 314 81 q 385 105 365 81 q 433 237 404 129 q 458 261 440 261 l 487 261 q 504 244 504 261 l 504 0 m 211 1170 q 190 1118 211 1139 q 138 1097 168 1097 q 86 1118 108 1097 q 64 1170 64 1139 q 86 1222 64 1200 q 138 1243 107 1243 q 190 1222 168 1243 q 211 1170 211 1200 m 463 1170 q 441 1118 463 1139 q 389 1097 419 1097 q 337 1118 359 1097 q 316 1170 316 1139 q 337 1221 316 1200 q 389 1243 359 1243 q 441 1222 420 1243 q 463 1170 463 1200 z "},"È":{"ha":517,"x_min":23,"x_max":504,"o":"m 504 0 l 39 0 q 23 16 23 0 l 23 46 q 45 77 23 60 q 65 126 65 93 l 65 929 q 40 982 65 964 q 23 1009 23 994 l 23 1042 q 39 1055 23 1055 l 388 1055 q 424 1057 397 1055 q 454 1059 448 1059 q 476 1046 476 1059 l 476 847 q 473 828 476 831 q 456 825 470 825 l 431 825 q 412 844 414 825 q 386 935 405 897 q 308 972 366 972 l 222 972 l 222 589 l 254 589 q 294 600 283 589 q 321 670 304 611 q 328 691 326 689 q 340 693 330 693 l 370 693 q 388 676 388 693 l 388 420 q 372 404 388 404 l 340 404 q 326 409 330 404 q 315 441 322 414 q 289 499 303 489 q 250 510 275 510 l 222 510 l 222 81 l 314 81 q 385 105 365 81 q 433 237 404 129 q 458 261 440 261 l 487 261 q 504 244 504 261 l 504 0 m 73 1307 l 226 1307 l 325 1097 l 256 1097 l 73 1307 z "},"Í":{"ha":288,"x_min":22,"x_max":302,"o":"m 222 126 q 248 73 222 91 q 266 46 266 62 l 266 16 q 248 0 266 0 l 37 0 q 22 14 22 0 l 22 46 q 39 73 22 61 q 65 126 65 92 l 65 929 q 39 981 65 964 q 22 1009 22 993 l 22 1039 q 39 1055 22 1055 l 251 1055 q 266 1040 266 1055 l 266 1009 q 248 981 266 994 q 222 929 222 963 l 222 126 m 148 1304 l 302 1304 l 118 1095 l 52 1095 l 148 1304 z "},"Î":{"ha":288,"x_min":-29,"x_max":317,"o":"m 222 126 q 248 73 222 91 q 266 46 266 62 l 266 16 q 248 0 266 0 l 37 0 q 22 14 22 0 l 22 46 q 39 73 22 61 q 65 126 65 92 l 65 929 q 39 981 65 964 q 22 1009 22 993 l 22 1039 q 39 1055 22 1055 l 251 1055 q 266 1040 266 1055 l 266 1009 q 248 981 266 994 q 222 929 222 963 l 222 126 m 87 1289 l 199 1289 l 317 1097 l 246 1097 l 139 1197 l 42 1097 l -29 1097 l 87 1289 z "},"Ï":{"ha":288,"x_min":-35,"x_max":363,"o":"m 243 126 q 269 73 243 91 q 286 46 286 62 l 286 16 q 269 0 286 0 l 57 0 q 42 14 42 0 l 42 46 q 60 73 42 61 q 85 126 85 92 l 85 929 q 60 981 85 964 q 42 1009 42 993 l 42 1039 q 60 1055 42 1055 l 271 1055 q 286 1040 286 1055 l 286 1009 q 269 981 286 994 q 243 929 243 963 l 243 126 m 112 1170 q 91 1118 112 1139 q 39 1097 69 1097 q -13 1118 9 1097 q -35 1170 -35 1139 q -13 1222 -35 1200 q 39 1243 8 1243 q 91 1222 69 1243 q 112 1170 112 1200 m 363 1170 q 342 1118 363 1139 q 290 1097 320 1097 q 238 1118 260 1097 q 217 1170 217 1139 q 238 1221 217 1200 q 290 1243 260 1243 q 342 1222 321 1243 q 363 1170 363 1200 z "},"Ì":{"ha":288,"x_min":-14,"x_max":267,"o":"m 223 126 q 249 73 223 91 q 267 46 267 62 l 267 16 q 249 0 267 0 l 37 0 q 22 14 22 0 l 22 46 q 40 73 22 61 q 66 126 66 92 l 66 929 q 40 981 66 964 q 22 1009 22 993 l 22 1039 q 40 1055 22 1055 l 252 1055 q 267 1040 267 1055 l 267 1009 q 249 981 267 994 q 223 929 223 963 l 223 126 m -14 1307 l 138 1307 l 237 1097 l 168 1097 l -14 1307 z "},"Ó":{"ha":629,"x_min":41,"x_max":587,"o":"m 321 -14 q 110 128 180 -14 q 41 522 41 271 q 111 921 41 774 q 315 1069 181 1069 q 514 933 440 1069 q 587 530 587 797 q 514 122 587 258 q 321 -14 441 -14 m 314 59 q 370 98 345 59 q 406 314 395 138 q 417 637 417 490 q 401 856 417 770 q 366 967 385 942 q 317 991 347 991 q 272 972 292 991 q 240 904 252 954 q 221 712 229 855 q 212 415 212 569 q 237 141 212 223 q 314 59 262 59 m 318 1304 l 472 1304 l 288 1095 l 222 1095 l 318 1304 z "},"Ô":{"ha":629,"x_min":41,"x_max":587,"o":"m 321 -14 q 110 128 180 -14 q 41 522 41 271 q 111 921 41 774 q 315 1069 181 1069 q 514 933 440 1069 q 587 530 587 797 q 514 122 587 258 q 321 -14 441 -14 m 314 59 q 370 98 345 59 q 406 314 395 138 q 417 637 417 490 q 401 856 417 770 q 366 967 385 942 q 317 991 347 991 q 272 972 292 991 q 240 904 252 954 q 221 712 229 855 q 212 415 212 569 q 237 141 212 223 q 314 59 262 59 m 257 1289 l 370 1289 l 487 1097 l 416 1097 l 309 1197 l 212 1097 l 141 1097 l 257 1289 z "},"Ò":{"ha":629,"x_min":41,"x_max":587,"o":"m 321 -14 q 110 128 180 -14 q 41 522 41 271 q 111 921 41 774 q 315 1069 181 1069 q 514 933 440 1069 q 587 530 587 797 q 514 122 587 258 q 321 -14 441 -14 m 314 59 q 370 98 345 59 q 406 314 395 138 q 417 637 417 490 q 401 856 417 770 q 366 967 385 942 q 317 991 347 991 q 272 972 292 991 q 240 904 252 954 q 221 712 229 855 q 212 415 212 569 q 237 141 212 223 q 314 59 262 59 m 155 1307 l 308 1307 l 407 1097 l 338 1097 l 155 1307 z "},"Ú":{"ha":581,"x_min":22,"x_max":559,"o":"m 515 244 q 454 54 515 123 q 292 -14 392 -14 q 129 54 193 -14 q 65 231 65 121 l 65 929 q 39 981 65 964 q 22 1009 22 994 l 22 1039 q 39 1055 22 1055 l 251 1055 q 266 1040 266 1055 l 266 1009 q 248 981 266 994 q 222 929 222 964 l 222 224 q 316 83 222 83 q 418 248 418 83 l 418 929 q 393 981 418 964 q 375 1009 375 994 l 375 1039 q 393 1055 375 1055 l 544 1055 q 559 1040 559 1055 l 559 1009 q 541 981 559 994 q 515 929 515 964 l 515 244 m 343 1304 l 497 1304 l 313 1095 l 247 1095 l 343 1304 z "},"Û":{"ha":581,"x_min":22,"x_max":559,"o":"m 515 244 q 454 54 515 123 q 292 -14 392 -14 q 129 54 193 -14 q 65 231 65 121 l 65 929 q 39 981 65 964 q 22 1009 22 994 l 22 1039 q 39 1055 22 1055 l 251 1055 q 266 1040 266 1055 l 266 1009 q 248 981 266 994 q 222 929 222 964 l 222 224 q 316 83 222 83 q 418 248 418 83 l 418 929 q 393 981 418 964 q 375 1009 375 994 l 375 1039 q 393 1055 375 1055 l 544 1055 q 559 1040 559 1055 l 559 1009 q 541 981 559 994 q 515 929 515 964 l 515 244 m 233 1289 l 346 1289 l 463 1097 l 393 1097 l 286 1197 l 189 1097 l 117 1097 l 233 1289 z "},"Ù":{"ha":581,"x_min":22,"x_max":559,"o":"m 515 244 q 454 54 515 123 q 292 -14 392 -14 q 129 54 193 -14 q 65 231 65 121 l 65 929 q 39 981 65 964 q 22 1009 22 994 l 22 1039 q 39 1055 22 1055 l 251 1055 q 266 1040 266 1055 l 266 1009 q 248 981 266 994 q 222 929 222 964 l 222 224 q 316 83 222 83 q 418 248 418 83 l 418 929 q 393 981 418 964 q 375 1009 375 994 l 375 1039 q 393 1055 375 1055 l 544 1055 q 559 1040 559 1055 l 559 1009 q 541 981 559 994 q 515 929 515 964 l 515 244 m 132 1307 l 284 1307 l 383 1097 l 314 1097 l 132 1307 z "},"ı":{"ha":239,"x_min":12,"x_max":229,"o":"m 187 640 l 187 108 q 216 58 187 73 q 229 38 229 51 l 229 13 q 214 0 229 0 l 26 0 q 12 13 12 0 l 12 38 q 24 58 12 52 q 53 108 53 72 l 53 528 q 24 579 53 564 q 12 597 12 586 l 12 622 q 26 635 12 634 l 187 640 z "},"ˆ":{"ha":463,"x_min":58,"x_max":404,"o":"m 174 948 l 287 948 l 404 756 l 334 756 l 227 857 l 130 756 l 58 756 l 174 948 z "},"˜":{"ha":463,"x_min":68,"x_max":395,"o":"m 68 769 l 68 795 q 90 879 68 846 q 153 911 112 911 q 243 876 186 911 q 305 850 287 850 q 337 892 337 850 l 337 908 l 395 908 l 395 877 q 373 798 395 829 q 313 768 350 768 q 216 806 275 768 q 158 832 176 832 q 125 785 125 832 l 125 769 l 68 769 z "},"ˉ":{"ha":463,"x_min":45,"x_max":414,"o":"m 45 784 l 45 874 l 414 874 l 414 784 l 45 784 z "},"˘":{"ha":463,"x_min":80,"x_max":383,"o":"m 80 928 l 148 928 q 233 837 165 837 q 317 928 301 837 l 383 928 q 342 794 382 842 q 233 746 302 746 q 80 928 92 746 z "},"˙":{"ha":463,"x_min":158,"x_max":304,"o":"m 304 860 q 283 808 304 829 q 231 787 262 787 q 180 808 201 787 q 158 860 158 829 q 179 912 158 890 q 231 933 201 933 q 283 912 262 933 q 304 860 304 890 z "},"˚":{"ha":463,"x_min":97,"x_max":366,"o":"m 366 860 q 327 765 366 804 q 231 725 287 725 q 136 765 176 725 q 97 860 97 804 q 137 955 97 916 q 231 994 176 994 q 327 955 288 994 q 366 860 366 916 m 313 859 q 289 917 313 893 q 231 941 265 941 q 174 917 198 941 q 150 859 150 893 q 174 802 150 826 q 231 778 198 778 q 289 802 265 778 q 313 859 313 826 z "},"¸":{"ha":463,"x_min":119,"x_max":345,"o":"m 205 18 l 274 18 l 265 -7 q 345 -92 345 -26 q 298 -173 345 -144 q 186 -202 252 -202 q 131 -199 175 -202 l 119 -146 l 151 -146 q 210 -132 189 -146 q 232 -97 232 -117 q 189 -64 232 -64 l 174 -64 l 205 18 z "},"˝":{"ha":463,"x_min":28,"x_max":484,"o":"m 125 964 l 279 964 l 95 755 l 28 755 l 125 964 m 330 964 l 484 964 l 300 755 l 233 755 l 330 964 z "},"˛":{"ha":463,"x_min":130,"x_max":359,"o":"m 229 24 q 199 -72 199 -39 q 260 -133 199 -133 q 359 -92 300 -133 l 359 -144 q 221 -212 287 -212 q 155 -186 179 -212 q 130 -118 130 -160 q 183 24 130 -57 l 229 24 z "},"ˇ":{"ha":463,"x_min":61,"x_max":401,"o":"m 61 948 l 130 948 l 227 850 l 332 948 l 401 948 l 285 757 l 177 757 l 61 948 z "},"Š":{"ha":496,"x_min":33,"x_max":471,"o":"m 91 0 l 57 0 q 40 18 40 0 l 40 274 q 58 300 40 300 l 87 300 q 103 292 99 300 q 113 238 106 284 q 240 60 141 60 q 321 105 292 60 q 351 214 351 150 q 319 336 351 279 q 197 488 288 392 q 98 601 127 561 q 51 692 68 642 q 33 804 33 743 q 89 989 33 917 q 227 1062 146 1062 q 307 1041 264 1062 q 333 1031 326 1031 q 348 1037 340 1031 q 368 1042 356 1042 l 393 1042 q 413 1023 413 1042 l 413 799 q 398 782 413 782 l 367 782 q 351 788 355 782 q 338 838 347 795 q 234 985 306 985 q 172 952 195 985 q 149 877 149 920 q 176 775 149 827 q 286 640 203 724 q 431 450 391 532 q 471 273 471 368 q 404 63 471 144 q 243 -18 336 -18 q 146 4 202 -18 q 121 12 129 12 q 104 5 115 12 q 91 0 96 0 m 81 1289 l 150 1289 l 247 1190 l 353 1289 l 422 1289 l 305 1097 l 197 1097 l 81 1289 z "},"š":{"ha":404,"x_min":16,"x_max":388,"o":"m 215 654 q 325 621 281 654 q 368 536 368 587 q 348 486 368 507 q 296 465 328 465 q 250 480 270 465 q 230 524 230 496 q 236 550 230 536 q 240 564 240 559 q 204 588 240 588 q 158 569 178 588 q 138 517 138 551 q 157 464 138 489 q 253 382 175 438 q 358 282 328 328 q 388 178 388 236 q 329 36 388 87 q 189 -14 270 -14 q 63 23 111 -14 q 16 117 16 60 q 35 171 16 148 q 90 193 54 193 q 155 132 155 193 q 151 105 155 121 q 146 84 146 90 q 194 51 146 51 q 254 74 230 51 q 277 125 277 96 q 257 184 277 157 q 176 257 236 211 q 61 365 94 319 q 28 473 28 410 q 85 604 28 553 q 215 654 142 654 m 37 948 l 106 948 l 203 850 l 309 948 l 378 948 l 261 757 l 153 757 l 37 948 z "},"¦":{"ha":349,"x_min":136,"x_max":212,"o":"m 136 1069 l 212 1069 l 212 578 l 136 578 l 136 1069 m 136 281 l 212 281 l 212 -210 l 136 -210 l 136 281 z "},"Ð":{"ha":610,"x_min":24,"x_max":570,"o":"m 66 481 l 24 481 l 24 569 l 66 569 l 66 929 q 43 979 66 964 q 24 1009 24 994 l 24 1044 q 39 1055 24 1055 l 216 1055 q 467 933 365 1055 q 570 538 570 811 q 539 268 570 397 q 440 70 508 140 q 210 0 372 0 l 36 0 q 24 12 24 0 l 24 46 q 41 73 24 61 q 66 126 66 92 l 66 481 m 222 481 l 222 79 q 328 111 290 79 q 382 254 365 144 q 399 506 399 363 q 386 750 399 660 q 354 886 373 840 q 306 951 334 932 q 222 974 277 970 l 222 569 l 319 569 l 319 481 l 222 481 z "},"ð":{"ha":477,"x_min":31,"x_max":446,"o":"m 102 830 l 228 878 q 98 1059 187 998 l 176 1059 q 314 910 255 1004 l 429 955 l 446 910 l 340 868 q 446 434 446 665 q 231 -14 446 -14 q 87 68 143 -14 q 31 318 31 150 q 87 572 31 491 q 222 654 143 654 q 283 633 255 654 q 245 830 271 746 l 121 783 l 102 830 m 235 589 q 191 532 202 589 q 179 285 179 475 q 192 103 179 149 q 235 56 204 56 q 282 118 271 56 q 294 351 294 180 q 288 488 294 421 q 270 572 282 555 q 235 589 257 589 z "},"Ý":{"ha":570,"x_min":8,"x_max":562,"o":"m 357 470 l 357 126 q 384 73 357 91 q 401 46 401 62 l 401 16 q 383 0 401 0 l 172 0 q 157 14 157 0 l 157 46 q 174 73 157 61 q 200 126 200 92 l 200 470 l 64 929 q 24 983 52 970 q 8 1006 8 989 l 8 1040 q 21 1055 8 1055 l 240 1055 q 259 1037 259 1055 l 259 1004 q 240 985 259 992 q 210 954 210 975 q 213 939 210 947 l 312 610 l 401 911 q 406 944 406 928 q 375 983 406 970 q 357 1003 357 991 l 357 1039 q 373 1055 357 1055 l 543 1055 q 562 1040 562 1055 l 562 1004 q 543 981 562 989 q 492 924 504 962 l 357 470 m 338 1304 l 492 1304 l 309 1095 l 242 1095 l 338 1304 z "},"ý":{"ha":438,"x_min":2,"x_max":430,"o":"m 181 4 l 56 522 q 19 579 47 558 q 8 594 8 588 l 8 627 q 22 640 8 640 l 201 640 q 213 629 213 640 l 213 594 q 201 581 213 585 q 176 545 176 572 q 181 509 176 530 l 242 251 l 303 502 q 307 528 307 518 q 277 575 307 552 q 261 594 261 588 l 261 628 q 272 640 261 640 l 418 640 q 430 628 430 640 l 430 594 q 417 578 430 586 q 372 509 384 559 l 261 47 q 213 -116 232 -75 q 160 -182 194 -157 q 83 -207 125 -207 q 24 -189 46 -207 q 2 -140 2 -170 q 22 -95 2 -110 q 66 -80 41 -80 q 140 -113 93 -80 q 181 4 168 -67 m 222 964 l 376 964 l 193 755 l 126 755 l 222 964 z "},"Þ":{"ha":562,"x_min":22,"x_max":535,"o":"m 222 930 l 222 812 q 452 735 369 812 q 535 528 535 658 q 222 243 535 243 l 222 126 q 248 73 222 91 q 266 46 266 62 l 266 16 q 248 0 266 0 l 37 0 q 22 14 22 0 l 22 46 q 39 73 22 61 q 65 126 65 92 l 65 929 q 39 981 65 964 q 22 1009 22 993 l 22 1039 q 39 1055 22 1055 l 248 1055 q 266 1039 266 1055 l 266 1009 q 248 981 266 994 q 222 930 222 964 m 222 731 l 222 323 q 312 336 283 323 q 357 392 340 350 q 374 521 374 433 q 358 651 374 608 q 311 711 342 694 q 222 731 280 729 z "},"þ":{"ha":479,"x_min":12,"x_max":449,"o":"m 53 -107 l 53 935 q 24 986 53 972 q 12 1004 12 992 l 12 1037 q 26 1049 12 1049 l 187 1055 l 187 582 q 298 646 239 646 q 408 564 368 646 q 449 336 449 483 q 431 151 449 237 q 383 25 413 65 q 302 -14 353 -14 q 187 39 238 -14 l 187 -115 q 206 -161 187 -146 q 216 -176 216 -168 l 216 -213 q 209 -222 216 -222 l 28 -222 q 17 -213 17 -222 l 17 -176 q 27 -162 17 -169 q 53 -107 53 -146 m 187 532 l 187 106 q 242 73 218 73 q 290 125 276 73 q 304 332 304 177 q 289 516 304 472 q 241 559 273 559 q 187 532 216 559 z "},"×":{"ha":621,"x_min":68,"x_max":553,"o":"m 68 316 l 257 505 l 68 693 l 122 747 l 311 558 l 499 747 l 553 693 l 364 505 l 553 316 l 499 262 l 311 451 l 122 262 l 68 316 z "},"¹":{"ha":372,"x_min":76,"x_max":296,"o":"m 134 989 l 93 989 q 76 1003 76 989 l 76 1021 q 85 1036 76 1031 l 159 1067 l 235 1067 q 248 1055 248 1067 l 248 618 q 283 574 248 583 q 296 560 296 571 l 296 544 q 281 530 296 530 l 102 530 q 85 545 85 530 l 85 560 q 97 574 85 571 q 134 623 134 583 l 134 989 z "},"²":{"ha":372,"x_min":27,"x_max":341,"o":"m 341 529 l 41 529 q 27 540 27 529 l 27 554 q 100 688 27 591 q 222 948 222 851 q 208 999 222 977 q 170 1021 195 1021 q 137 1003 137 1021 q 144 990 137 998 q 157 958 157 975 q 140 920 157 935 q 99 905 123 905 q 56 923 73 905 q 39 966 39 942 q 80 1039 39 1009 q 178 1069 121 1069 q 294 1034 250 1069 q 338 939 338 998 q 318 863 338 901 q 235 755 298 825 q 131 627 168 684 l 250 627 q 288 654 277 627 q 307 671 294 671 l 330 671 q 341 661 341 671 l 341 529 z "},"³":{"ha":372,"x_min":25,"x_max":339,"o":"m 224 827 q 339 684 339 781 q 287 571 339 616 q 161 526 235 526 q 65 552 105 526 q 25 614 25 578 q 41 654 25 637 q 79 671 57 671 q 115 657 100 671 q 130 621 130 643 q 127 597 130 613 q 126 587 126 591 q 149 571 126 571 q 202 603 182 571 q 222 687 222 635 q 147 796 222 788 q 130 807 130 798 l 130 840 q 146 851 130 850 q 213 943 213 858 q 200 1002 213 979 q 165 1025 187 1025 q 136 991 138 1025 q 92 936 134 936 q 57 951 71 936 q 43 987 43 966 q 81 1045 43 1022 q 176 1069 120 1069 q 284 1035 241 1069 q 328 948 328 1002 q 224 827 328 863 z "},"½":{"ha":811,"x_min":76,"x_max":783,"o":"m 134 989 l 93 989 q 76 1003 76 989 l 76 1021 q 85 1036 76 1031 l 159 1067 l 235 1067 q 248 1055 248 1067 l 248 618 q 283 574 248 583 q 296 560 296 571 l 296 544 q 281 530 296 530 l 102 530 q 85 545 85 530 l 85 560 q 97 574 85 571 q 134 623 134 583 l 134 989 m 590 1066 l 666 1066 l 222 -24 l 145 -24 l 590 1066 m 783 -1 l 484 -1 q 470 9 470 -1 l 470 24 q 543 158 470 60 q 664 417 664 321 q 650 468 664 446 q 612 490 637 490 q 580 473 580 490 q 587 459 580 467 q 600 427 600 444 q 583 389 600 405 q 542 374 566 374 q 499 393 515 374 q 482 435 482 412 q 523 508 482 479 q 621 538 564 538 q 736 504 691 538 q 781 408 781 469 q 761 333 781 371 q 677 225 741 295 q 574 96 611 153 l 693 96 q 730 123 720 96 q 749 141 736 141 l 772 141 q 783 130 783 141 l 783 -1 z "},"¼":{"ha":811,"x_min":76,"x_max":793,"o":"m 134 989 l 93 989 q 76 1003 76 989 l 76 1021 q 85 1036 76 1031 l 159 1067 l 235 1067 q 248 1055 248 1067 l 248 618 q 283 574 248 583 q 296 560 296 571 l 296 544 q 281 530 296 530 l 102 530 q 85 545 85 530 l 85 560 q 97 574 85 571 q 134 623 134 583 l 134 989 m 590 1066 l 666 1066 l 222 -24 l 145 -24 l 590 1066 m 740 168 l 777 168 q 793 155 793 168 l 793 126 q 782 115 793 115 l 740 115 l 740 78 q 760 44 740 53 q 770 32 770 39 l 770 13 q 757 -1 770 -1 l 620 -1 q 604 13 604 -1 l 604 32 q 614 43 604 39 q 638 83 638 53 l 638 115 l 472 115 q 456 127 456 115 l 456 155 q 472 202 456 174 l 650 524 q 673 536 657 536 l 725 536 q 740 522 740 536 l 740 168 m 509 168 l 638 168 l 638 402 l 509 168 z "},"¾":{"ha":811,"x_min":29,"x_max":794,"o":"m 229 827 q 343 684 343 781 q 291 571 343 616 q 165 526 239 526 q 69 552 109 526 q 29 614 29 578 q 45 654 29 637 q 83 671 61 671 q 119 657 104 671 q 134 621 134 643 q 132 597 134 613 q 130 587 130 591 q 153 571 130 571 q 206 603 186 571 q 226 687 226 635 q 151 796 226 788 q 134 807 134 798 l 134 840 q 150 851 134 850 q 217 943 217 858 q 204 1002 217 979 q 169 1025 191 1025 q 140 991 142 1025 q 96 936 138 936 q 61 951 75 936 q 47 987 47 966 q 85 1045 47 1022 q 180 1069 124 1069 q 289 1035 245 1069 q 332 948 332 1002 q 229 827 332 863 m 590 1066 l 666 1066 l 222 -24 l 146 -24 l 590 1066 m 740 168 l 778 168 q 794 155 794 168 l 794 126 q 782 115 794 115 l 740 115 l 740 78 q 760 44 740 53 q 770 32 770 39 l 770 13 q 758 -1 770 -1 l 620 -1 q 604 13 604 -1 l 604 32 q 615 43 604 39 q 639 83 639 53 l 639 115 l 472 115 q 456 127 456 115 l 456 155 q 472 202 456 174 l 651 524 q 673 536 658 536 l 726 536 q 740 522 740 536 l 740 168 m 509 168 l 639 168 l 639 402 l 509 168 z "},"¯":{"ha":347,"x_min":-8,"x_max":355,"o":"m -8 1228 l 355 1228 l 355 1159 l -8 1159 l -8 1228 z "},"¤":{"ha":621,"x_min":73,"x_max":549,"o":"m 186 323 l 126 263 l 73 317 l 132 377 q 93 493 93 434 q 132 627 93 566 l 73 686 l 126 740 l 186 680 q 302 720 245 720 q 435 680 382 720 l 495 740 l 549 686 l 490 627 q 529 509 529 568 q 490 377 529 437 l 549 317 l 495 263 l 435 323 q 319 283 375 283 q 186 323 243 283 m 167 502 q 208 401 167 444 q 311 357 249 357 q 413 400 370 357 q 455 502 455 442 q 413 603 455 561 q 311 646 370 646 q 208 603 250 646 q 167 502 167 559 z "}}}
